<svg width="54" height="60" viewBox="0 0 54 60" fill="none" xmlns="http://www.w3.org/2000/svg">
<path d="M51.8109 13.8421C49.5755 10.3412 44.7686 8.88686 38.2918 9.72158C38.063 9.74841 37.8205 9.78891 37.5917 9.81573C37.4976 9.60061 37.4034 9.38496 37.2956 9.16984C34.5084 3.25841 30.6978 0 26.5504 0C22.4031 0 18.5793 3.25841 15.8053 9.16984C15.7112 9.38496 15.6033 9.60061 15.5092 9.81573C15.2667 9.77576 15.0379 9.74841 14.8091 9.72158C8.31913 8.87319 3.5254 10.3412 1.29001 13.8421C-0.944854 17.343 -0.258458 22.3113 3.2156 27.8319C3.67373 28.5594 4.17182 29.2863 4.71042 30C4.17182 30.7269 3.67373 31.4406 3.2156 32.1675C-0.258458 37.6882 -0.944854 42.6702 1.29001 46.1579C3.10778 49.0124 6.63601 50.5072 11.3887 50.5072C12.528 50.5009 13.6657 50.4246 14.7955 50.2779C15.0243 50.2511 15.2667 50.2106 15.4955 50.1837C15.5902 50.3994 15.6843 50.6145 15.7922 50.8302C18.5793 56.7411 22.39 60 26.5368 60C30.6841 60 34.5084 56.7411 37.2819 50.8302C37.3761 50.6145 37.4839 50.3994 37.578 50.1837C37.8205 50.2242 38.0493 50.2511 38.2786 50.2779C39.4074 50.431 40.5456 50.5072 41.6848 50.5072C46.4381 50.5072 49.9658 49.0124 51.7835 46.1579C54.0189 42.657 53.332 37.6882 49.8585 32.1675C49.4004 31.4406 48.9023 30.7137 48.3637 30C48.9023 29.2726 49.4004 28.5594 49.8585 27.8319C53.3725 22.2982 54.0594 17.3293 51.8109 13.8421ZM18.2427 10.3144C20.5181 5.46698 23.5477 2.69299 26.5504 2.69299C29.5532 2.69299 32.5829 5.46698 34.8582 10.3144C34.8598 10.3244 34.8645 10.3338 34.8719 10.3412C32.0116 11.0292 29.2219 11.9801 26.5368 13.182C23.8548 11.9743 21.064 11.0228 18.2022 10.3412C18.229 10.3412 18.229 10.3275 18.2427 10.3144ZM38.6826 30C38.6831 32.1544 38.5663 34.3077 38.3323 36.4495C36.6539 37.8039 34.9008 39.0625 33.0809 40.2197C30.9807 41.5683 28.7948 42.7785 26.5368 43.8421C24.2835 42.7701 22.0976 41.5604 19.9931 40.2197C18.1754 39.0594 16.4223 37.8007 14.7418 36.4495C14.2747 32.1623 14.2747 27.8372 14.7418 23.55C18.371 20.6334 22.33 18.1524 26.5368 16.1579C28.7906 17.2293 30.976 18.4391 33.0809 19.7798C34.8987 20.9401 36.6518 22.1987 38.3323 23.55C38.5663 25.6923 38.6831 27.8451 38.6826 30ZM41.2541 26.0815C42.5727 27.3096 43.814 28.6183 44.9706 30C43.814 31.3812 42.5727 32.6898 41.2541 33.918C41.3351 32.6257 41.3756 31.3197 41.3756 30C41.3756 28.6803 41.3351 27.3743 41.2541 26.0815ZM37.78 40.2739C37.355 42.605 36.738 44.8972 35.9354 47.1273C33.8441 46.655 31.7918 46.0249 29.7957 45.2422C31.3842 44.4075 32.9731 43.4918 34.5484 42.4956C35.653 41.7818 36.7302 41.0413 37.78 40.2739ZM23.3052 45.2422C21.3128 46.0349 19.2594 46.6655 17.1655 47.1273C16.3629 44.8972 15.7459 42.605 15.3209 40.2739C16.3576 41.0413 17.4348 41.7818 18.5525 42.4819C20.1278 43.4918 21.7167 44.4075 23.3052 45.2422ZM11.8468 33.918C10.5282 32.6898 9.28745 31.3812 8.13031 30C9.28745 28.6183 10.5282 27.3096 11.8468 26.0815C11.7658 27.3743 11.7253 28.6803 11.7253 30C11.7253 31.3197 11.7658 32.6257 11.8468 33.918ZM15.3209 19.7261C15.7459 17.3945 16.3629 15.1023 17.1655 12.8727C19.2568 13.3445 21.3096 13.9746 23.3052 14.7578C21.7167 15.5925 20.1278 16.5082 18.5525 17.5044C17.4479 18.2182 16.3707 18.9587 15.3209 19.7261ZM34.5353 17.5044C32.9731 16.5082 31.3842 15.5788 29.782 14.7578C31.7744 13.9651 33.8278 13.3345 35.9223 12.8727C36.7244 15.1023 37.3413 17.3945 37.7669 19.7261C36.7302 18.9587 35.653 18.2182 34.5353 17.5044ZM5.49149 26.3913C2.6365 21.8669 1.93643 17.8142 3.55223 15.2827C4.84507 13.263 7.64588 12.1721 11.4292 12.1721C12.4422 12.1763 13.4542 12.2442 14.4588 12.3741H14.4857C13.3964 15.5415 12.6384 18.8131 12.224 22.1362C10.149 23.8671 8.21709 25.7633 6.44719 27.8051C6.11056 27.3475 5.78762 26.8762 5.49149 26.3913ZM14.4457 47.6123C13.4411 47.7427 12.4291 47.81 11.4161 47.8142C7.63221 47.8142 4.8314 46.737 3.53908 44.7036C1.92328 42.1721 2.62335 38.1195 5.47782 33.595C5.77394 33.1238 6.09741 32.6388 6.43404 32.1675C8.20342 34.2099 10.1353 36.1055 12.2103 37.8365C12.6253 41.1601 13.3832 44.4317 14.4725 47.5986C14.4725 47.6123 14.4588 47.6123 14.4457 47.6123ZM34.8582 49.6856C32.5829 54.533 29.5532 57.307 26.5504 57.307C23.5477 57.307 20.5181 54.533 18.2427 49.6856C18.2411 49.6757 18.2364 49.6662 18.229 49.6588C21.0893 48.9708 23.879 48.0199 26.5641 46.8175C29.2461 48.0257 32.0369 48.9772 34.8987 49.6588C34.8719 49.6588 34.8719 49.672 34.8582 49.6856ZM47.6094 33.6087C50.4644 38.1326 51.1645 42.1858 49.5487 44.7173C47.9329 47.2483 43.9607 48.3123 38.6552 47.6123H38.6284C39.7177 44.4448 40.4761 41.1733 40.8906 37.8502C42.9656 36.1192 44.8975 34.223 46.6669 32.1812C46.9903 32.6525 47.3133 33.1238 47.6094 33.6087ZM40.8769 22.1498C40.4625 18.8262 39.7045 15.5546 38.6152 12.3877H38.6421C43.9471 11.7008 47.9192 12.7512 49.535 15.2827C51.1508 17.8142 50.4507 21.8669 47.5963 26.3913C47.3001 26.8626 46.9767 27.3475 46.64 27.8188C44.8786 25.7733 42.9509 23.8771 40.8769 22.1498Z" fill="#101820"/>
<path d="M26.5505 24.6676C23.6055 24.6676 21.2181 27.055 21.2181 29.9999C21.2181 32.9449 23.6055 35.3317 26.5505 35.3317C29.4954 35.3317 31.8828 32.9449 31.8828 29.9999C31.8807 27.0555 29.4943 24.6697 26.5505 24.6676ZM26.5505 32.6387C25.093 32.6387 23.9111 31.4574 23.9111 29.9999C23.9111 28.5425 25.093 27.3606 26.5505 27.3606C28.0079 27.3606 29.1898 28.5425 29.1898 29.9999C29.1872 31.4564 28.0069 32.6366 26.5505 32.6387Z" fill="#101820"/>
</svg>
