<svg width="60" height="60" viewBox="0 0 60 60" fill="none" xmlns="http://www.w3.org/2000/svg">
<path d="M56.0806 44.8346C55.897 45.1579 55.6912 45.5032 55.4647 45.8668C52.2847 50.9607 47.6182 55.0321 42.0712 57.4725C41.1577 57.8741 40.2198 58.2329 39.2611 58.5426C38.6954 58.7262 38.1222 58.8941 37.5431 59.0435L41.3132 6.92188L46.0006 11.0227L51.0395 11.1403L56.0806 44.8346Z" fill="#101820" fill-opacity="0.9"/>
<path d="M39.1998 7.60781C37.9214 4.27723 35.8937 1.30664 32.5679 1.8368C31.805 0.825352 30.7544 0.095625 29.3046 0.00867187H29.2996C29.2043 0.00246094 29.1076 0 29.0083 0C28.7119 0 28.4182 0.0195703 28.1267 0.0575391C22.9569 0.734648 18.7238 7.28449 17.1345 14.771L9.90757 17.1171L5.95483 47.9436C8.11976 50.8383 10.794 53.3302 13.8467 55.2832L35.9879 59.4023C37.1022 59.177 38.1944 58.8893 39.2609 58.5428L41.3131 6.92191L39.1998 7.60781ZM19.4255 14.0278C19.4255 14.0278 20.4541 10.789 21.8599 7.85883C23.2668 4.92984 27.8366 0.710274 30.4154 2.2923C30.4925 2.34012 30.5673 2.39145 30.6383 2.44664C27.6774 3.81316 25.3522 7.00781 24.1668 12.4887L19.4255 14.0278ZM32.4308 9.80566L26.6157 11.6926C26.6157 11.6926 27.7251 5.65828 31.8345 4.17668C32.7431 6.51059 32.4308 9.80566 32.4308 9.80566ZM34.5748 9.10898C34.5748 9.10898 34.5748 6.37957 33.6614 3.90855C35.7687 4.12898 36.8499 6.38566 37.3825 8.19797L34.5748 9.10898Z" fill="#101820"/>
<path d="M14.5508 42.3258C15.6042 43.0871 16.658 43.8604 17.8782 44.3596C18.4031 44.5744 18.9386 44.7413 19.5009 44.832C20.5104 44.9949 21.426 44.8601 22.0683 43.9772C22.7416 43.0519 22.6222 42.0649 22.1744 41.0923C21.8665 40.424 21.3509 39.9101 20.8051 39.4325C20.0999 38.8157 19.3873 38.2075 18.6713 37.6034C16.3474 35.6431 15.6278 33.1 16.0372 30.1853C16.7508 25.1037 20.5295 21.4728 25.6403 20.8503C27.8374 20.5826 29.9927 20.6041 32.1157 21.321C32.5923 21.4819 32.6398 21.676 32.4876 22.1144C31.8227 24.0286 31.1787 25.9505 30.5557 27.8788C30.43 28.2681 30.3264 28.3325 29.9282 28.1692C28.3026 27.5029 26.6213 27.1054 24.8475 27.4027C23.6143 27.6094 22.6237 28.15 22.2767 29.4612C22.0325 30.3842 22.356 31.1514 23.0124 31.7967C23.9205 32.6895 24.9787 33.3967 25.9817 34.1719C27.1936 35.1088 28.3152 36.134 29.0992 37.4705C30.4957 39.8514 30.511 42.3926 29.7861 44.9463C28.5599 49.2656 24.8502 51.5965 20.3881 51.0332C17.7946 50.7058 15.5053 49.7627 13.5196 48.0602C13.0731 47.6774 12.9052 47.3328 13.1254 46.716C13.5903 45.4147 13.9451 44.0739 14.3439 42.749C14.3879 42.6031 14.3941 42.4409 14.5508 42.3258Z" fill="#F2AA4C"/>
</svg>
