<svg width="40" height="18" viewBox="0 0 40 18" fill="none" xmlns="http://www.w3.org/2000/svg">
<path fill-rule="evenodd" clip-rule="evenodd" d="M13.4386 1C12.034 1 10.9033 2.12657 10.9033 3.52593V9.77824L10.8194 9.77804L9.57986 8.71993L8.60515 9.73112L11.8099 12.924L15.0683 9.73112L13.9466 8.71993L12.8855 9.78272L12.7671 9.78252V3.6856C12.7671 2.9116 13.3925 2.28847 14.1694 2.28847H15.2837C16.0606 2.28847 16.686 2.9116 16.686 3.6856V4.33636H18.8526V3.52593C18.8526 2.12657 17.7218 1 16.3172 1H13.4386ZM17.7854 5.00776L14.5271 8.20061L15.6488 9.21179L16.7099 8.149L16.8283 8.1492V14.2461C16.8283 15.0201 16.2029 15.6432 15.426 15.6432H14.3117C13.5348 15.6432 12.9094 15.0201 12.9094 14.2461V13.5954H10.7428V14.4058C10.7428 15.8052 11.8736 16.9317 13.2782 16.9317H16.1568C17.5613 16.9317 18.6921 15.8052 18.6921 14.4058V8.15348L18.776 8.15368L20.0155 9.21179L20.9902 8.20061L17.7854 5.00776ZM29.3006 8.46835L32.4672 12.4708L28.9603 16.7018H31.8653L33.802 13.9178L35.778 16.7018H38.5L35.0583 12.4317L38.2905 8.46835H35.6079L33.7629 11.0759L32.0224 8.46835H29.3006ZM4.6643 8.49658L1 16.6735H3.39661L4.10902 14.9405H7.79189L8.5043 16.6735H10.9009L7.22743 8.49658H4.6643ZM22.4371 8.49658L18.7728 16.6735H21.1695L21.8819 14.9405H25.5647L26.2771 16.6735H28.6738L25.0003 8.49658H22.4371ZM5.9658 10.4245L6.58752 11.9794L7.20925 13.5344L5.96951 13.5373L4.72977 13.5405L5.34778 11.9825L5.9658 10.4245ZM23.7386 10.4245L24.3604 11.9794L24.9821 13.5344L23.7424 13.5373L22.5026 13.5405L23.1206 11.9825L23.7386 10.4245Z" fill="#101B20" stroke="#101820" stroke-width="0.5"/>
</svg>
