<svg width="12" height="20" viewBox="0 0 12 20" fill="none" xmlns="http://www.w3.org/2000/svg">
<path d="M11.5559 9.2196L2.65567 0.31951C2.44982 0.113495 2.17502 0 1.88202 0C1.58901 0 1.31422 0.113495 1.10837 0.31951L0.452924 0.974789C0.0264238 1.40178 0.0264238 2.09576 0.452924 2.52209L7.92669 9.99585L0.444632 17.4779C0.23878 17.6839 0.125122 17.9586 0.125122 18.2514C0.125122 18.5446 0.23878 18.8192 0.444632 19.0254L1.10007 19.6805C1.30609 19.8865 1.58072 20 1.87373 20C2.16673 20 2.44153 19.8865 2.64738 19.6805L11.5559 10.7723C11.7623 10.5656 11.8756 10.2897 11.8749 9.99634C11.8756 9.70187 11.7623 9.4261 11.5559 9.2196Z" fill="#F2AA4C"/>
</svg>
