<svg width="38" height="38" viewBox="0 0 38 38" fill="none" xmlns="http://www.w3.org/2000/svg">
<g clip-path="url(#clip0)">
<path d="M38 31.75C38 35.1875 35.1875 38 31.75 38H6.75C3.3125 38 0.5 35.1875 0.5 31.75V6.75C0.5 3.3125 3.3125 0.5 6.75 0.5H31.75C35.1875 0.5 38 3.3125 38 6.75V31.75Z" fill="#101820"/>
<path d="M10.6899 8.64954H21.3211C23.2818 8.64954 24.8566 9.09684 26.0392 9.99758C27.2218 10.8983 27.8162 12.2525 27.8162 14.0723C27.8162 15.1753 27.5465 16.1189 27.0073 16.9032C26.4681 17.6875 25.6961 18.3003 24.6912 18.7292V18.7905C26.0392 19.0785 27.0625 19.7157 27.7549 20.7022C28.4473 21.6949 28.7965 22.9326 28.7965 24.4277C28.7965 25.2856 28.6434 26.0883 28.337 26.8297C28.0306 27.5772 27.5527 28.2206 26.897 28.7598C26.2414 29.299 25.4081 29.728 24.3848 30.0466C23.3615 30.3652 22.1483 30.5245 20.739 30.5245H10.6899V8.64954ZM14.5196 17.8101H20.7696C21.6887 17.8101 22.4546 17.5527 23.0674 17.0258C23.6801 16.4988 23.9865 15.7513 23.9865 14.7709C23.9865 13.6679 23.7108 12.8897 23.1593 12.4424C22.6078 11.9951 21.8113 11.7684 20.7696 11.7684H14.5196V17.8101ZM14.5196 27.3995H21.2904C22.4546 27.3995 23.3615 27.0993 23.9988 26.4927C24.6421 25.8922 24.9669 25.0343 24.9669 23.9314C24.9669 22.8468 24.6483 22.0196 23.9988 21.4314C23.3492 20.8432 22.4546 20.5613 21.2904 20.5613H14.5196V27.3995Z" fill="#F2AA4C"/>
</g>
<defs>
<clipPath id="clip0">
<rect width="37.5" height="37.5" fill="white" transform="translate(0.5 0.5)"/>
</clipPath>
</defs>
</svg>
