<svg width="62" height="60" viewBox="0 0 62 60" fill="none" xmlns="http://www.w3.org/2000/svg">
<path d="M57.245 48.3216H4.47098C3.28567 48.3202 2.1493 47.8487 1.31115 47.0106C0.473007 46.1725 0.00152205 45.0361 0.00012207 43.8508V4.47086C0.00152205 3.28554 0.473007 2.14918 1.31115 1.31103C2.1493 0.472885 3.28567 0.00139998 4.47098 0H57.245C58.4303 0.00139998 59.5667 0.472885 60.4048 1.31103C61.2429 2.14918 61.7144 3.28554 61.7158 4.47086V43.8508C61.7144 45.0361 61.2429 46.1725 60.4048 47.0106C59.5667 47.8487 58.4303 48.3202 57.245 48.3216ZM4.47098 1.76331C3.75311 1.76401 3.06484 2.04949 2.55723 2.5571C2.04961 3.06472 1.76413 3.75299 1.76343 4.47086V43.8508C1.76413 44.5686 2.04961 45.2569 2.55723 45.7645C3.06484 46.2721 3.75311 46.5576 4.47098 46.5583H57.245C57.9628 46.5576 58.6511 46.2721 59.1587 45.7645C59.6663 45.2569 59.9518 44.5686 59.9525 43.8508V4.47086C59.9518 3.75299 59.6663 3.06472 59.1587 2.5571C58.6511 2.04949 57.9628 1.76401 57.245 1.76331H4.47098Z" fill="#101820"/>
<path d="M60.8342 36.183H0.881775C0.647946 36.183 0.423694 36.0901 0.258352 35.9248C0.0930102 35.7594 0.00012207 35.5352 0.00012207 35.3013C0.00012207 35.0675 0.0930102 34.8433 0.258352 34.6779C0.423694 34.5126 0.647946 34.4197 0.881775 34.4197H60.8342C61.068 34.4197 61.2923 34.5126 61.4576 34.6779C61.6229 34.8433 61.7158 35.0675 61.7158 35.3013C61.7158 35.5352 61.6229 35.7594 61.4576 35.9248C61.2923 36.0901 61.068 36.183 60.8342 36.183Z" fill="#101820"/>
<path d="M40.8154 56.1719H20.9007C20.7674 56.172 20.6358 56.1418 20.5158 56.0837C20.3959 56.0256 20.2907 55.9411 20.2081 55.8364C20.1255 55.7318 20.0678 55.6098 20.0391 55.4796C20.0105 55.3494 20.0118 55.2145 20.0428 55.0848L21.9234 47.2381C21.9695 47.0455 22.0792 46.8741 22.2346 46.7514C22.3901 46.6287 22.5823 46.562 22.7804 46.5619H38.9358C39.1338 46.562 39.326 46.6287 39.4815 46.7514C39.6369 46.8741 39.7466 47.0455 39.7927 47.2381L41.6733 55.0848C41.7043 55.2145 41.7056 55.3494 41.677 55.4796C41.6484 55.6098 41.5906 55.7318 41.508 55.8364C41.4254 55.9411 41.3202 56.0256 41.2003 56.0837C41.0803 56.1418 40.9487 56.172 40.8154 56.1719ZM22.0186 54.4086H39.6975L38.2401 48.3252H23.476L22.0186 54.4086Z" fill="#101820"/>
<path d="M42.3195 60H19.4009C19.0338 60 18.6703 59.9277 18.3311 59.7872C17.9919 59.6467 17.6837 59.4408 17.4241 59.1812C17.1645 58.9216 16.9585 58.6134 16.818 58.2742C16.6775 57.935 16.6052 57.5714 16.6052 57.2043C16.6052 56.8372 16.6775 56.4736 16.818 56.1344C16.9585 55.7952 17.1645 55.487 17.4241 55.2274C17.6837 54.9678 17.9919 54.7619 18.3311 54.6214C18.6703 54.4809 19.0338 54.4086 19.4009 54.4086H42.3195C42.6866 54.4086 43.0502 54.4809 43.3894 54.6214C43.7286 54.7619 44.0368 54.9678 44.2964 55.2274C44.556 55.487 44.7619 55.7952 44.9024 56.1344C45.0429 56.4736 45.1152 56.8372 45.1152 57.2043C45.1152 57.5714 45.0429 57.935 44.9024 58.2742C44.7619 58.6134 44.556 58.9216 44.2964 59.1812C44.0368 59.4408 43.7286 59.6467 43.3894 59.7872C43.0502 59.9277 42.6866 60 42.3195 60ZM19.4054 56.1719C19.1315 56.1719 18.8689 56.2806 18.6753 56.4743C18.4817 56.6679 18.3729 56.9305 18.3729 57.2043C18.3729 57.4781 18.4817 57.7407 18.6753 57.9343C18.8689 58.1279 19.1315 58.2367 19.4054 58.2367H42.3195C42.5933 58.2367 42.8559 58.1279 43.0495 57.9343C43.2431 57.7407 43.3519 57.4781 43.3519 57.2043C43.3519 56.9305 43.2431 56.6679 43.0495 56.4743C42.8559 56.2806 42.5933 56.1719 42.3195 56.1719H19.4054Z" fill="#101820"/>
<path d="M30.8581 44.0854C30.2678 44.0854 29.6908 43.9103 29.2 43.5824C28.7092 43.2545 28.3267 42.7884 28.1008 42.2431C27.875 41.6977 27.8158 41.0977 27.931 40.5187C28.0462 39.9398 28.3304 39.4081 28.7478 38.9907C29.1651 38.5733 29.6969 38.2891 30.2758 38.1739C30.8547 38.0588 31.4548 38.1179 32.0001 38.3438C32.5455 38.5696 33.0116 38.9522 33.3395 39.4429C33.6674 39.9337 33.8425 40.5107 33.8425 41.101C33.8415 41.8922 33.5268 42.6507 32.9673 43.2102C32.4078 43.7697 31.6493 44.0844 30.8581 44.0854ZM30.8581 39.8799C30.6165 39.8799 30.3805 39.9515 30.1797 40.0857C29.9788 40.2199 29.8223 40.4106 29.7299 40.6337C29.6375 40.8568 29.6133 41.1023 29.6604 41.3392C29.7075 41.5761 29.8238 41.7936 29.9946 41.9644C30.1654 42.1352 30.383 42.2515 30.6198 42.2986C30.8567 42.3457 31.1022 42.3215 31.3253 42.2291C31.5485 42.1367 31.7392 41.9802 31.8734 41.7794C32.0075 41.5786 32.0791 41.3425 32.0791 41.101C32.0789 40.7772 31.9502 40.4667 31.7212 40.2378C31.4923 40.0088 31.1818 39.8801 30.8581 39.8799Z" fill="#101820"/>
</svg>
