<svg width="28" height="38" viewBox="0 0 28 38" fill="none" xmlns="http://www.w3.org/2000/svg">
<path d="M27.0086 7.86963L24.5936 34.9838L13.7381 38L2.91245 34.9881L0.5 7.86963H27.0086Z" fill="#101820"/>
<path d="M22.5262 33.2572L24.59 10.0869H13.7544V35.6945L22.5262 33.2572Z" fill="#101820"/>
<path d="M6.03052 20.1448L6.32795 23.4707H13.7544V20.1448H6.03052Z" fill="#F2AA4C"/>
<path d="M13.7543 13.413H13.7429H5.43286L5.73454 16.739H13.7543V13.413Z" fill="#F2AA4C"/>
<path d="M13.7542 32.2432V28.7828L13.7396 28.7867L10.0437 27.7865L9.80743 25.1339H8.01149H6.47607L6.94101 30.3562L13.7389 32.2475L13.7542 32.2432Z" fill="#F2AA4C"/>
<path d="M6.73877 0.5H10.7582V2.18457H8.41961V3.86914H10.7582V5.55371H6.73877V0.5Z" fill="#101820"/>
<path d="M11.562 0.5H15.5814V1.96484H13.2429V2.25781H15.5814V5.62695H11.562V4.08887H13.9006V3.7959H11.562V0.5Z" fill="#101820"/>
<path d="M16.3853 0.5H20.4047V1.96484H18.0661V2.25781H20.4047V5.62695H16.3853V4.08887H18.7238V3.7959H16.3853V0.5Z" fill="#101820"/>
<path d="M17.8294 23.4707L17.4442 27.7843L13.7429 28.7855V32.2457L20.5462 30.356L20.5961 29.7941L21.376 21.0379L21.457 20.1448L22.0561 13.413H13.7429V16.739H18.4192L18.1172 20.1448H13.7429V23.4707H17.8294Z" fill="#F2AA4C"/>
</svg>
