<svg width="26" height="38" viewBox="0 0 26 38" fill="none" xmlns="http://www.w3.org/2000/svg">
<g clip-path="url(#clip0)">
<path d="M6.66896 38C10.0729 38 12.8355 35.2 12.8355 31.75V25.5H6.66896C3.26504 25.5 0.502441 28.3 0.502441 31.75C0.502441 35.2 3.26504 38 6.66896 38Z" fill="#101820"/>
<path d="M0.502441 19.25C0.502441 15.8 3.26504 13 6.66896 13H12.8355V25.5H6.66896C3.26504 25.5 0.502441 22.7 0.502441 19.25Z" fill="#101820"/>
<path d="M0.50293 6.75C0.50293 3.3 3.26553 0.5 6.66945 0.5H12.836V13H6.66945C3.26553 13 0.50293 10.2 0.50293 6.75Z" fill="#101820"/>
<path d="M12.8354 0.5H19.002C22.4059 0.5 25.1685 3.3 25.1685 6.75C25.1685 10.2 22.4059 13 19.002 13H12.8354V0.5Z" fill="#101820"/>
<path d="M25.1685 19.25C25.1685 22.7 22.4059 25.5 19.002 25.5C15.5981 25.5 12.8354 22.7 12.8354 19.25C12.8354 15.8 15.5981 13 19.002 13C22.4059 13 25.1685 15.8 25.1685 19.25Z" fill="#101820"/>
</g>
<defs>
<clipPath id="clip0">
<rect width="24.6711" height="37.5" fill="white" transform="translate(0.5 0.5)"/>
</clipPath>
</defs>
</svg>
