<svg width="60" height="60" viewBox="0 0 60 60" fill="none" xmlns="http://www.w3.org/2000/svg">
<path d="M4.5454 33.7272H32.6364C33.1819 33.7272 33.5454 33.3636 33.5454 32.8182V23.7273C33.5454 23.1818 33.0909 22.8182 32.6364 22.8182H4.5454C3.9999 22.8182 3.63635 23.1819 3.63635 23.7273V32.8182C3.63635 33.3636 3.9999 33.7272 4.5454 33.7272ZM5.45444 24.6363H31.7272V31.909H5.45444V24.6363Z" fill="#101820"/>
<path d="M8.90905 35.3636H5.09093C4.54543 35.3636 4.18188 35.7273 4.18188 36.2727V40C4.18188 40.5455 4.54555 40.9091 5.09093 40.9091H8.81826C9.36376 40.9091 9.7273 40.5454 9.7273 40V36.1818C9.81822 35.7273 9.36364 35.3636 8.90905 35.3636ZM5.99997 39.091V37.0909H7.90909V39.091H5.99997Z" fill="#101820"/>
<path d="M8.90905 43.0001H5.09093C4.54543 43.0001 4.18188 43.3638 4.18188 43.9092V47.7274C4.18188 48.2729 4.54555 48.6365 5.09093 48.6365H8.81826C9.36376 48.6365 9.7273 48.2728 9.7273 47.7274V43.9092C9.81822 43.3638 9.36364 43.0001 8.90905 43.0001ZM5.99997 46.8184V44.8183H7.90909V46.8184H5.99997Z" fill="#101820"/>
<path d="M8.90905 50.6365H5.09093C4.54543 50.6365 4.18188 51.0001 4.18188 51.5455V55.3638C4.18188 55.9093 4.54555 56.2728 5.09093 56.2728H8.81826C9.36376 56.2728 9.7273 55.9091 9.7273 55.3638V51.5455C9.81822 51.0911 9.36364 50.6365 8.90905 50.6365ZM5.99997 54.4547V52.4547H7.90909V54.4547H5.99997Z" fill="#101820"/>
<path d="M16.6363 35.3636H12.8181C12.2726 35.3636 11.9091 35.7273 11.9091 36.2727V40C11.9091 40.5455 12.2727 40.9091 12.8181 40.9091H16.6363C17.1818 40.9091 17.5454 40.5454 17.5454 40V36.1818C17.5455 35.7273 17.0909 35.3636 16.6363 35.3636ZM15.7273 39.091H13.7273V37.0909H15.7273V39.091Z" fill="#101820"/>
<path d="M16.6363 43.0001H12.8181C12.2726 43.0001 11.9091 43.3638 11.9091 43.9092V47.7274C11.9091 48.2729 12.2727 48.6365 12.8181 48.6365H16.6363C17.1818 48.6365 17.5454 48.2728 17.5454 47.7274V43.9092C17.5455 43.3638 17.0909 43.0001 16.6363 43.0001ZM15.7273 46.8184H13.7273V44.8183H15.7273V46.8184Z" fill="#101820"/>
<path d="M16.6363 50.6365H12.8181C12.2726 50.6365 11.9091 51.0001 11.9091 51.5455V55.3638C11.9091 55.9093 12.2727 56.2728 12.8181 56.2728H16.6363C17.1818 56.2728 17.5454 55.9091 17.5454 55.3638V51.5455C17.5455 51.0911 17.0909 50.6365 16.6363 50.6365ZM15.7273 54.4547H13.7273V52.4547H15.7273V54.4547Z" fill="#101820"/>
<path d="M24.3637 35.3636H20.6363C20.0908 35.3636 19.7273 35.7273 19.7273 36.2727V40C19.7273 40.5455 20.091 40.9091 20.6363 40.9091H24.3637C24.9092 40.9091 25.2727 40.5454 25.2727 40V36.1818C25.2728 35.7273 24.8183 35.3636 24.3637 35.3636ZM23.4546 39.091H21.5455V37.0909H23.4546V39.091Z" fill="#101820"/>
<path d="M24.3637 43.0001H20.6363C20.0908 43.0001 19.7273 43.3638 19.7273 43.9092V47.7274C19.7273 48.2729 20.091 48.6365 20.6363 48.6365H24.3637C24.9092 48.6365 25.2727 48.2728 25.2727 47.7274V43.9092C25.2728 43.3638 24.8183 43.0001 24.3637 43.0001ZM23.4546 46.8184H21.5455V44.8183H23.4546V46.8184Z" fill="#101820"/>
<path d="M24.3637 50.6365H20.6363C20.0908 50.6365 19.7273 51.0001 19.7273 51.5455V55.3638C19.7273 55.9093 20.091 56.2728 20.6363 56.2728H24.3637C24.9092 56.2728 25.2727 55.9091 25.2727 55.3638V51.5455C25.2728 51.0911 24.8183 50.6365 24.3637 50.6365ZM23.4546 54.4547H21.5455V52.4547H23.4546V54.4547Z" fill="#101820"/>
<path d="M32 35.3636H28.2727C27.7272 35.3636 27.3636 35.7273 27.3636 36.2727V40C27.3636 40.5455 27.7273 40.9091 28.2727 40.9091H32C32.5455 40.9091 32.9091 40.5454 32.9091 40V36.1818C32.9092 35.7273 32.5455 35.3636 32 35.3636ZM31.091 39.091H29.1819V37.0909H31.091V39.091Z" fill="#101820"/>
<path d="M32 43.0001H28.2727C27.7272 43.0001 27.3636 43.3638 27.3636 43.9092V55.3638C27.3636 55.9093 27.7273 56.2728 28.2727 56.2728H32C32.5455 56.2728 32.9091 55.9092 32.9091 55.3638V43.9092C32.9092 43.3638 32.5455 43.0001 32 43.0001ZM31.091 54.4547H29.1819V44.8183H31.091V54.4547Z" fill="#101820"/>
<path d="M59.7274 15.8182L43.5456 0.272749C43.3637 0.0909164 43.091 0 42.9092 0H11.6363C11.0908 0 10.7273 0.363666 10.7273 0.909043V18.909H0.909043C0.363545 18.909 0 19.2727 0 19.8181V59.091C0 59.6365 0.363666 60 0.909043 60C1.45442 60 3.27263 60 59.091 60C59.6365 60 60 59.6363 60 59.091C60 55.2727 60 67.3637 60 16.4545C60.0001 16.2727 59.9092 15.9092 59.7274 15.8182ZM43.8183 3L56.8183 15.4546H43.8183V3ZM35.3637 58.1819H1.81821V20.7274H35.3637V58.1819ZM58.1819 58.1819H37.1819V19.8182C37.1819 19.2727 36.8182 18.9092 36.2729 18.9092H12.5455V1.81821H42.0001V16.4547C42.0001 17.0002 42.3638 17.3637 42.9092 17.3637H58.1819C58.1819 48.5456 58.1819 57.7275 58.1819 58.1819Z" fill="#101820"/>
<path d="M35.7274 5.72717H17.4547C16.9092 5.72717 16.5457 6.09084 16.5457 6.63622C16.5457 7.18159 16.9093 7.54526 17.4547 7.54526H35.7274C36.2729 7.54526 36.6365 7.18159 36.6365 6.63622C36.6365 6.09084 36.2729 5.72717 35.7274 5.72717Z" fill="#101820"/>
<path d="M35.7274 11.0909H17.4547C16.9092 11.0909 16.5457 11.4546 16.5457 12C16.5457 12.5454 16.9093 12.909 17.4547 12.909H35.7274C36.2729 12.909 36.6365 12.5454 36.6365 12C36.6365 11.4546 36.2729 11.0909 35.7274 11.0909Z" fill="#101820"/>
<path d="M47.8183 38.3636C43.0001 38.3636 39.0911 42.2727 39.0911 47.1818C39.0911 52 43.0001 56 47.8183 56C52.6365 56 56.5456 52.0909 56.5456 47.1818C56.5456 42.2728 52.6365 38.3636 47.8183 38.3636ZM47.8183 54.091C44.0001 54.091 40.9091 51.0001 40.9091 47.0909C40.9091 43.1817 44.0001 40.0909 47.8183 40.0909C51.6366 40.0909 54.7275 43.1819 54.7275 47.0909C54.7275 50.9999 51.6366 54.091 47.8183 54.091Z" fill="#101820"/>
<path d="M50.5455 47.2728C50.0909 46.8183 49.3637 46.4547 48.3636 46.2729V43.8184C49 43.9093 49.6363 44.182 50.1818 44.5456L50.9999 43.3638C50.1818 42.8183 49.2726 42.4547 48.3636 42.3638V41.7274H47.5455V42.3638C46.7274 42.3638 46 42.6366 45.5454 43.182C44.9999 43.6365 44.7273 44.2728 44.7273 45.0002C44.7273 45.7274 44.9091 46.2729 45.3637 46.7275C45.8183 47.0911 46.5455 47.4548 47.4547 47.6365V50.1819C46.7274 50.091 45.9092 49.7273 45.2728 49.091L44.3638 50.1819C45.2728 51 46.3638 51.4546 47.5456 51.6365V52.5455H48.3637V51.6365C49.2728 51.6365 49.9092 51.3637 50.4547 50.8183C51.0002 50.3638 51.2728 49.7275 51.2728 49.0001C51.2728 48.2729 51.0001 47.6365 50.5455 47.2728ZM47.5455 46.0001C47.0909 45.8183 46.7272 45.7274 46.5455 45.5455C46.3638 45.3637 46.2728 45.1819 46.2728 44.8183C46.2728 44.5456 46.3637 44.2728 46.6364 44.091C46.8183 43.9092 47.1819 43.8183 47.5455 43.7273V46.0001ZM49.2728 49.8184C49 50.0002 48.7273 50.182 48.2728 50.182V47.8185C48.8183 48.0003 49.1819 48.1821 49.3637 48.273C49.5455 48.4549 49.6364 48.7276 49.6364 49.0004C49.6364 49.3638 49.5455 49.6365 49.2728 49.8184Z" fill="#101820"/>
<path d="M41.8182 31.0911C41.7273 31.0911 41.8182 31.0911 41.8182 31.182L38.0909 39.0911C37.9091 39.4548 38 39.9092 38.3637 40.182C38.6364 40.4547 39.091 40.4547 39.4545 40.2729L46.6363 35.3638L46.7273 35.2728C46.7273 35.2728 46.8182 35.2728 46.8182 35.1819L56.8183 23.4547C58 22.0911 57.8182 20.091 56.4546 18.9092C55.9091 18.4546 55.1819 18.182 54.3636 18.182C53.4546 18.182 52.5454 18.5457 51.9091 19.2729L41.909 31.0001C41.9092 31.0001 41.9092 31.0911 41.8182 31.0911ZM53.3637 20.4547C53.8183 19.9092 54.7273 19.8183 55.2728 20.2728C55.9092 20.8183 55.9092 21.6365 55.4546 22.2729L46 33.2729L43.9091 31.4547L53.3637 20.4547ZM44.6364 34.4547L41.1818 36.8183L43 33.0001L44.6364 34.4547Z" fill="#101820"/>
</svg>
