<svg width="60" height="60" viewBox="0 0 60 60" fill="none" xmlns="http://www.w3.org/2000/svg">
<g clip-path="url(#clip0)">
<path d="M30 1.25C13.425 1.25 0 14.45 0 30.73C0 43.7575 8.595 54.805 20.5125 58.7C22.0125 58.9775 22.5625 58.065 22.5625 57.2825C22.5625 56.5825 22.5375 54.7275 22.525 52.27C14.18 54.0475 12.42 48.315 12.42 48.315C11.055 44.9125 9.0825 44.0025 9.0825 44.0025C6.365 42.175 9.2925 42.2125 9.2925 42.2125C12.305 42.4175 13.8875 45.25 13.8875 45.25C16.5625 49.7575 20.91 48.455 22.625 47.7025C22.895 45.795 23.6675 44.4975 24.525 43.76C17.8625 43.0225 10.86 40.4875 10.86 29.1925C10.86 25.975 12.0225 23.345 13.9475 21.2825C13.61 20.5375 12.5975 17.54 14.21 13.48C14.21 13.48 16.7225 12.69 22.46 16.5025C24.86 15.8475 27.41 15.5225 29.96 15.5075C32.51 15.5225 35.06 15.8475 37.46 16.5025C43.16 12.69 45.6725 13.48 45.6725 13.48C47.285 17.54 46.2725 20.5375 45.9725 21.2825C47.885 23.345 49.0475 25.975 49.0475 29.1925C49.0475 40.5175 42.035 43.01 35.36 43.735C36.41 44.62 37.385 46.4275 37.385 49.19C37.385 53.135 37.3475 56.305 37.3475 57.2625C37.3475 58.035 37.8725 58.9575 39.41 58.6625C51.4125 54.7925 60 43.7375 60 30.73C60 14.45 46.5675 1.25 30 1.25Z" fill="#F2AA4C"/>
</g>
<defs>
<clipPath id="clip0">
<rect width="60" height="60" fill="white"/>
</clipPath>
</defs>
</svg>
