<svg width="28" height="38" viewBox="0 0 28 38" fill="none" xmlns="http://www.w3.org/2000/svg">
<path d="M3.11499 0.5H4.81727V2.20915H6.38632V0.5H8.0886V5.67242H6.38632V3.94828H4.83207V5.67242H3.11499V0.5ZM10.3386 2.22414H8.83612V0.5H13.5507V2.22414H12.0408V5.67242H10.3386V2.22414ZM14.2982 0.5H16.0819L17.1773 2.32159L18.2727 0.5H20.0563V5.67242H18.3541V3.1087L17.1625 4.96777L15.9709 3.1087V5.67242H14.2982V0.5ZM20.9001 0.5H22.6024V3.96327H25.0151V5.67242H20.9001" fill="black"/>
<path d="M2.938 35.0037L0.5 7.9353H27.3032L24.8652 34.9891L13.8794 38" fill="#101820"/>
<path d="M13.9016 35.7372V10.1984H25.0151L22.8943 33.2892" fill="#101820"/>
<path d="M5.40308 13.431H13.9016V16.7394H9.11561L9.42871 20.128H13.9016V23.4291H6.32748L5.40308 13.431ZM6.47658 25.0906H9.87601L10.1146 27.7358L13.9016 28.7269V32.181L6.95369 30.2864" fill="#F2AA4C"/>
<path d="M22.4002 13.431H13.9016V16.742H22.0865L22.4002 13.431ZM21.7803 20.1332H13.9016V23.4442H18.0837L17.6879 27.747L13.9016 28.7388V32.181L20.8468 30.2995" fill="#F2AA4C"/>
</svg>
