<svg width="60" height="60" viewBox="0 0 60 60" fill="none" xmlns="http://www.w3.org/2000/svg">
<g clip-path="url(#clip0)">
<path d="M59.9413 17.6402C59.8007 14.4521 59.2852 12.2604 58.5467 10.3612C57.7848 8.34529 56.6127 6.54043 55.0771 5.04005C53.5767 3.51631 51.7599 2.3323 49.7673 1.58234C47.8572 0.843823 45.6769 0.328281 42.4888 0.18772C39.277 0.0352547 38.2574 0 30.1113 0C21.9651 0 20.9455 0.0352547 17.7456 0.175816C14.5575 0.316377 12.3658 0.832377 10.4671 1.57044C8.45069 2.3323 6.64584 3.50441 5.14545 5.04005C3.62172 6.54043 2.43817 8.35719 1.68775 10.3498C0.949231 12.2604 0.433688 14.4402 0.293127 17.6283C0.140662 20.8401 0.105408 21.8597 0.105408 30.0059C0.105408 38.152 0.140662 39.1716 0.281223 42.3716C0.421784 45.5596 0.937784 47.7513 1.6763 49.6505C2.43817 51.6664 3.62172 53.4713 5.14545 54.9717C6.64584 56.4954 8.4626 57.6794 10.4552 58.4294C12.3658 59.1679 14.5456 59.6834 17.7341 59.824C20.9336 59.965 21.9537 59.9998 30.0998 59.9998C38.2459 59.9998 39.2656 59.965 42.4655 59.824C45.6535 59.6834 47.8453 59.1679 49.744 58.4294C53.7763 56.8704 56.9643 53.6824 58.5233 49.6505C59.2614 47.7399 59.7774 45.5596 59.9179 42.3716C60.0585 39.1716 60.0938 38.152 60.0938 30.0059C60.0938 21.8597 60.0818 20.8401 59.9413 17.6402ZM54.5382 42.1371C54.409 45.0674 53.9169 46.6497 53.5066 47.7046C52.4984 50.3185 50.4239 52.393 47.81 53.4012C46.7551 53.8115 45.1613 54.3037 42.2425 54.4323C39.0778 54.5733 38.1287 54.6081 30.1232 54.6081C22.1176 54.6081 21.1566 54.5733 18.0033 54.4323C15.0731 54.3037 13.4907 53.8115 12.4358 53.4012C11.1351 52.9205 9.95108 52.1586 8.99004 51.1623C7.99375 50.1894 7.23189 49.0173 6.75114 47.7165C6.34091 46.6616 5.84871 45.0674 5.72006 42.149C5.57904 38.9844 5.54424 38.0348 5.54424 30.0292C5.54424 22.0237 5.57904 21.0626 5.72006 17.9098C5.84871 14.9796 6.34091 13.3972 6.75114 12.3423C7.23189 11.0411 7.99375 9.85758 9.00195 8.89609C9.97443 7.8998 11.1465 7.13793 12.4477 6.65764C13.5026 6.24741 15.0969 5.75521 18.0152 5.6261C21.1799 5.48554 22.1295 5.45028 30.1346 5.45028C38.1521 5.45028 39.1012 5.48554 42.2544 5.6261C45.1847 5.75521 46.767 6.24741 47.8219 6.65764C49.1227 7.13793 50.3067 7.8998 51.2677 8.89609C52.264 9.86902 53.0259 11.0411 53.5066 12.3423C53.9169 13.3972 54.409 14.991 54.5382 17.9098C54.6787 21.0745 54.714 22.0237 54.714 30.0292C54.714 38.0348 54.6787 38.9725 54.5382 42.1371Z" fill="#F2AA4C"/>
<path d="M30.1112 14.5927C21.602 14.5927 14.6981 21.4962 14.6981 30.0058C14.6981 38.5155 21.602 45.419 30.1112 45.419C38.6209 45.419 45.5244 38.5155 45.5244 30.0058C45.5244 21.4962 38.6209 14.5927 30.1112 14.5927ZM30.1112 40.004C24.5909 40.004 20.1131 35.5266 20.1131 30.0058C20.1131 24.4851 24.5909 20.0077 30.1112 20.0077C35.632 20.0077 40.1094 24.4851 40.1094 30.0058C40.1094 35.5266 35.632 40.004 30.1112 40.004Z" fill="#F2AA4C"/>
<path d="M49.7325 13.9833C49.7325 15.9704 48.1213 17.5816 46.1338 17.5816C44.1467 17.5816 42.5355 15.9704 42.5355 13.9833C42.5355 11.9957 44.1467 10.385 46.1338 10.385C48.1213 10.385 49.7325 11.9957 49.7325 13.9833Z" fill="#F2AA4C"/>
</g>
<defs>
<clipPath id="clip0">
<rect width="60" height="60" fill="white"/>
</clipPath>
</defs>
</svg>
