<svg width="39" height="38" viewBox="0 0 39 38" fill="none" xmlns="http://www.w3.org/2000/svg">
<g clip-path="url(#clip0)">
<path fill-rule="evenodd" clip-rule="evenodd" d="M37.4733 28.334L37.3039 28.7745C34.4176 34.3961 29.3012 37.8461 22.0039 37.997C18.5939 38.0678 15.3411 37.193 13.2188 36.2412C8.63522 34.1835 4.78172 30.3639 2.67785 26.2856C-0.340879 20.4391 -0.886098 12.3039 5.39162 6.22949C5.48711 6.22949 4.63078 7.54788 4.72627 7.54788L4.55377 8.11158C0.0287611 22.275 13.9673 34.4115 27.5146 33.0253C30.7736 32.6865 34.9259 30.903 37.4733 28.334Z" fill="#101820"/>
<path fill-rule="evenodd" clip-rule="evenodd" d="M29.2735 22.4782C32.6834 22.5028 36.2412 20.9072 38.3512 18.6709C36.5061 23.353 31.1648 26.3625 24.003 25.4045C18.0056 24.6005 12.2947 18.5661 11.7063 12.5194C11.2751 8.11765 12.8091 5.4932 15.3381 2.30505C14.4602 3.97152 14.1306 5.25601 14.0505 6.07538C13.0863 15.5998 21.6527 22.4289 29.2735 22.4782Z" fill="#101820"/>
<path fill-rule="evenodd" clip-rule="evenodd" d="M38.0093 10.6559C37.4795 11.8726 34.4299 14.1674 33.0807 14.4539C27.7456 15.5906 24.3295 13.0616 22.5398 10.1815C22.2749 9.75025 21.7821 8.57664 21.6927 8.27785C20.9997 5.91831 21.3169 2.3482 23.3869 0.5C22.7647 2.25579 22.6723 4.29805 23.0019 5.62568C23.2021 6.42656 23.8059 7.82812 24.4127 8.70909C25.5154 10.3139 26.2147 10.7021 27.6347 11.5553C28.2723 11.9373 28.9593 12.2453 29.255 12.3316C30.598 12.7259 33.435 13.767 38.0093 10.6559Z" fill="#101820"/>
</g>
<defs>
<clipPath id="clip0">
<rect width="37.8512" height="37.5" fill="white" transform="translate(0.5 0.5)"/>
</clipPath>
</defs>
</svg>
