<svg width="39" height="38" viewBox="0 0 39 38" fill="none" xmlns="http://www.w3.org/2000/svg">
<path d="M38.9868 0.5H0.5V38H38.9868V0.5Z" fill="#101820"/>
<path d="M26.2703 29.7074C27.0545 30.9559 28.0748 31.8736 29.8793 31.8736C31.3952 31.8736 32.3635 31.1349 32.3635 30.1141C32.3635 28.8909 31.3686 28.4577 29.7 27.746L28.7854 27.3634C26.1454 26.2667 24.3916 24.8929 24.3916 21.9885C24.3916 19.3131 26.4822 17.2764 29.7495 17.2764C32.0756 17.2764 33.7478 18.0657 34.9529 20.1325L32.104 21.9162C31.4767 20.8195 30.8 20.3874 29.7495 20.3874C28.6779 20.3874 27.9987 21.0503 27.9987 21.9162C27.9987 22.9863 28.6785 23.4196 30.2482 24.0824L31.1628 24.4644C34.2712 25.7642 36.0263 27.0892 36.0263 30.0683C36.0263 33.28 33.4388 35.0395 29.9639 35.0395C26.5663 35.0395 24.3712 33.4608 23.2972 31.3916L26.2703 29.7074ZM13.3465 30.0165C13.9212 31.0107 14.444 31.8513 15.701 31.8513C16.9029 31.8513 17.6612 31.3928 17.6612 29.6098V17.48H21.3196V29.658C21.3196 33.3517 19.0986 35.0329 15.8567 35.0329C12.9275 35.0329 11.2311 33.5548 10.3684 31.7745L13.3465 30.0165Z" fill="#F2AA4C"/>
</svg>
