<svg width="18" height="38" viewBox="0 0 18 38" fill="none" xmlns="http://www.w3.org/2000/svg">
<path fill-rule="evenodd" clip-rule="evenodd" d="M9.74946 37.9999L8.75123 37.6587C8.75123 37.6587 8.87314 32.5697 7.04662 32.2045C5.82937 30.792 7.24188 -27.698 11.6248 32.0095C11.6248 32.0095 10.1149 32.7642 9.84709 34.055C9.55472 35.3214 9.74946 37.9999 9.74946 37.9999Z" fill="white"/>
<path fill-rule="evenodd" clip-rule="evenodd" d="M9.74946 37.9999L8.75123 37.6587C8.75123 37.6587 8.87314 32.5697 7.04662 32.2045C5.82937 30.792 7.24188 -27.698 11.6248 32.0095C11.6248 32.0095 10.1149 32.7642 9.84709 34.055C9.55472 35.3214 9.74946 37.9999 9.74946 37.9999Z" fill="#101820" fill-opacity="0.5"/>
<path fill-rule="evenodd" clip-rule="evenodd" d="M10.2854 33.081C10.2854 33.081 19.0275 27.3341 16.9817 15.3778C15.0095 6.68507 10.3585 3.83604 9.84708 2.74018C9.28715 1.96096 8.75122 0.597534 8.75122 0.597534L9.11668 24.7772C9.11668 24.8018 8.36174 32.1799 10.2856 33.0813" fill="white"/>
<path fill-rule="evenodd" clip-rule="evenodd" d="M10.2854 33.081C10.2854 33.081 19.0275 27.3341 16.9817 15.3778C15.0095 6.68507 10.3585 3.83604 9.84708 2.74018C9.28715 1.96096 8.75122 0.597534 8.75122 0.597534L9.11668 24.7772C9.11668 24.8018 8.36174 32.1799 10.2856 33.0813" fill="#101820"/>
<path fill-rule="evenodd" clip-rule="evenodd" d="M8.24018 33.3975C8.24018 33.3975 0.0337494 27.7968 0.520858 17.9351C0.983426 8.07314 6.77885 3.22739 7.89899 2.3508C8.62965 1.57159 8.65393 1.27922 8.70274 0.5C9.21413 1.59586 9.11676 16.8881 9.18959 18.6898C9.4086 25.6296 8.80011 32.0829 8.24018 33.3975Z" fill="white"/>
<path fill-rule="evenodd" clip-rule="evenodd" d="M8.24018 33.3975C8.24018 33.3975 0.0337494 27.7968 0.520858 17.9351C0.983426 8.07314 6.77885 3.22739 7.89899 2.3508C8.62965 1.57159 8.65393 1.27922 8.70274 0.5C9.21413 1.59586 9.11676 16.8881 9.18959 18.6898C9.4086 25.6296 8.80011 32.0829 8.24018 33.3975Z" fill="#101820" fill-opacity="0.9"/>
</svg>
