<svg width="38" height="38" viewBox="0 0 38 38" fill="none" xmlns="http://www.w3.org/2000/svg">
<g clip-path="url(#clip0)">
<path d="M37.8564 36.7678C37.214 35.8622 36.1733 35.1107 35.0716 34.3149C33.8853 33.4597 32.6669 32.58 32.0565 31.5577C34.372 31.074 37.3017 30.1974 37.4428 30.1554C37.6947 30.0799 37.8922 29.8823 37.967 29.6305C38.0425 29.3787 37.986 29.1055 37.8167 28.9041C37.6656 28.7248 34.1187 24.563 28.3937 22.5214C28.1411 22.0156 27.8596 21.3671 27.5324 20.6171C25.2267 15.3271 20.4401 4.34844 7.81121 2.87137C6.80487 2.19162 4.16743 0.500977 2.84374 0.500977C1.20114 0.500977 0.5 1.20212 0.5 2.84471C0.5 3.64429 1.15075 4.57886 2.21203 6.03835C2.7308 6.75172 3.59908 7.94571 3.62501 8.31346C3.62501 9.59211 5.10815 13.7318 6.59972 15.5026C6.55702 15.5934 6.51425 15.6826 6.47228 15.7712C5.81157 17.1635 5.18747 18.4788 5.18747 21.5946C5.18747 25.6977 7.15277 27.8445 9.09367 27.8445C10.2984 27.8445 10.898 26.4773 11.1864 24.8767C12.2568 27.0488 14.0055 29.8785 16.4553 31.6081C16.8085 31.8553 17.296 31.7713 17.5447 31.4203C17.7935 31.0671 17.7095 30.5803 17.357 30.3309C13.4721 27.5889 11.4191 21.4144 11.3985 21.3519C11.2795 20.9872 10.9057 20.7613 10.5333 20.8231C10.1541 20.8834 9.87487 21.2107 9.87487 21.5945C9.87487 23.7399 9.46596 26.0256 9.0936 26.2819C7.96678 26.2819 6.74987 24.4898 6.74987 21.5945C6.74987 18.8303 7.25033 17.776 7.88357 16.4408C8.00186 16.1913 8.12388 15.935 8.24524 15.6619C8.38484 15.3468 8.30244 14.9775 8.04156 14.7524C6.83768 13.7158 5.18747 9.351 5.18747 8.31338C5.18747 7.5138 4.53672 6.57924 3.47545 5.11975C2.95668 4.40637 2.08839 3.21239 2.06247 2.84464C2.06247 2.06337 2.06247 2.06337 2.84374 2.06337C3.47698 2.06337 5.54072 3.2085 7.08949 4.27051C7.19554 4.34302 7.31837 4.3888 7.44727 4.40249C19.3209 5.6903 23.7313 15.8068 26.1003 21.242C26.4993 22.1575 26.8441 22.9487 27.1554 23.527C27.2492 23.7017 27.4057 23.8337 27.5926 23.897C31.492 25.2185 34.3995 27.688 35.7621 29.0141C34.4315 29.3872 32.3068 29.9548 30.8404 30.1989C30.6252 30.2348 30.4345 30.3591 30.3155 30.5414C30.1957 30.7238 30.1576 30.9474 30.211 31.1587C30.6908 33.0813 32.5326 34.4103 34.1569 35.5822C35.151 36.2994 36.0893 36.9768 36.5807 37.6711C36.7333 37.8863 36.9744 38.0007 37.2193 38.0007C37.3757 38.0007 37.5329 37.9542 37.6702 37.8573C38.0219 37.6078 38.1058 37.1203 37.8564 36.7678Z" fill="#546E7A"/>
<path d="M7.53125 6.75007C7.53125 7.1819 7.88069 7.53134 8.31252 7.53134C8.74355 7.53134 9.09379 7.88151 9.09379 8.31261C9.09379 8.74444 9.44323 9.09388 9.87506 9.09388C10.3069 9.09388 10.6563 8.74444 10.6563 8.31261C10.6563 7.02018 9.60502 5.96887 8.31259 5.96887C7.88069 5.9688 7.53125 6.31824 7.53125 6.75007Z" fill="#546E7A"/>
<path d="M37.8564 36.7678C37.214 35.8622 36.1733 35.1107 35.0716 34.3149C33.8853 33.4597 32.6669 32.58 32.0565 31.5577C34.372 31.074 37.3017 30.1974 37.4428 30.1554C37.6947 30.0799 37.8922 29.8823 37.967 29.6305C38.0425 29.3787 37.986 29.1055 37.8167 28.9041C37.6656 28.7248 34.1187 24.563 28.3937 22.5214C28.1411 22.0156 27.8596 21.3671 27.5324 20.6171C25.2267 15.3271 20.4401 4.34844 7.81121 2.87137C6.80487 2.19162 4.16743 0.500977 2.84374 0.500977C1.20114 0.500977 0.5 1.20212 0.5 2.84471C0.5 3.64429 1.15075 4.57886 2.21203 6.03835C2.7308 6.75172 3.59908 7.94571 3.62501 8.31346C3.62501 9.59211 5.10815 13.7318 6.59972 15.5026C6.55702 15.5934 6.51425 15.6826 6.47228 15.7712C5.81157 17.1635 5.18747 18.4788 5.18747 21.5946C5.18747 25.6977 7.15277 27.8445 9.09367 27.8445C10.2984 27.8445 10.898 26.4773 11.1864 24.8767C12.2568 27.0488 14.0055 29.8785 16.4553 31.6081C16.8085 31.8553 17.296 31.7713 17.5447 31.4203C17.7935 31.0671 17.7095 30.5803 17.357 30.3309C13.4721 27.5889 11.4191 21.4144 11.3985 21.3519C11.2795 20.9872 10.9057 20.7613 10.5333 20.8231C10.1541 20.8834 9.87487 21.2107 9.87487 21.5945C9.87487 23.7399 9.46596 26.0256 9.0936 26.2819C7.96678 26.2819 6.74987 24.4898 6.74987 21.5945C6.74987 18.8303 7.25033 17.776 7.88357 16.4408C8.00186 16.1913 8.12388 15.935 8.24524 15.6619C8.38484 15.3468 8.30244 14.9775 8.04156 14.7524C6.83768 13.7158 5.18747 9.351 5.18747 8.31338C5.18747 7.5138 4.53672 6.57924 3.47545 5.11975C2.95668 4.40637 2.08839 3.21239 2.06247 2.84464C2.06247 2.06337 2.06247 2.06337 2.84374 2.06337C3.47698 2.06337 5.54072 3.2085 7.08949 4.27051C7.19554 4.34302 7.31837 4.3888 7.44727 4.40249C19.3209 5.6903 23.7313 15.8068 26.1003 21.242C26.4993 22.1575 26.8441 22.9487 27.1554 23.527C27.2492 23.7017 27.4057 23.8337 27.5926 23.897C31.492 25.2185 34.3995 27.688 35.7621 29.0141C34.4315 29.3872 32.3068 29.9548 30.8404 30.1989C30.6252 30.2348 30.4345 30.3591 30.3155 30.5414C30.1957 30.7238 30.1576 30.9474 30.211 31.1587C30.6908 33.0813 32.5326 34.4103 34.1569 35.5822C35.151 36.2994 36.0893 36.9768 36.5807 37.6711C36.7333 37.8863 36.9744 38.0007 37.2193 38.0007C37.3757 38.0007 37.5329 37.9542 37.6702 37.8573C38.0219 37.6078 38.1058 37.1203 37.8564 36.7678ZM7.53121 6.75092C7.53121 7.18275 7.88064 7.53219 8.31248 7.53219C8.74351 7.53219 9.09375 7.88235 9.09375 8.31346C9.09375 8.74529 9.44318 9.09472 9.87502 9.09472C10.3069 9.09472 10.6563 8.74529 10.6563 8.31346C10.6563 7.02103 9.60498 5.96972 8.31255 5.96972C7.88064 5.96965 7.53121 6.31908 7.53121 6.75092Z" fill="url(#paint0_linear)"/>
</g>
<defs>
<linearGradient id="paint0_linear" x1="-3.01941" y1="9.57795" x2="41.3289" y2="30.2544" gradientUnits="userSpaceOnUse">
<stop stop-color="#101820" stop-opacity="0.76"/>
<stop offset="1" stop-color="#101820"/>
</linearGradient>
<clipPath id="clip0">
<rect width="37.5" height="37.5" fill="white" transform="translate(0.5 0.5)"/>
</clipPath>
</defs>
</svg>
