<svg width="34" height="38" viewBox="0 0 34 38" fill="none" xmlns="http://www.w3.org/2000/svg">
<g clip-path="url(#clip0)">
<path d="M17.109 37.9304C16.5932 37.9304 16.1118 37.7929 15.6647 37.5522L11.0912 34.8356C10.4035 34.4573 10.7474 34.3198 10.9537 34.251C11.8821 33.9415 12.0541 33.8727 13.0169 33.3225C13.1201 33.2538 13.2576 33.2882 13.3608 33.3569L16.8683 35.4545C17.0058 35.5233 17.1778 35.5233 17.2809 35.4545L31.0014 27.5111C31.139 27.4423 31.2077 27.3048 31.2077 27.1329V11.2804C31.2077 11.1084 31.139 10.9709 31.0014 10.9021L17.2809 2.99307C17.1434 2.92429 16.9714 2.92429 16.8683 2.99307L3.14781 10.9021C3.01026 10.9709 2.94149 11.1428 2.94149 11.2804V27.1329C2.94149 27.2704 3.01026 27.4423 3.14781 27.5111L6.89601 29.6775C8.92485 30.7091 10.1972 29.5056 10.1972 28.302V12.6559C10.1972 12.4495 10.3691 12.2432 10.6098 12.2432H12.3636C12.5699 12.2432 12.7762 12.4151 12.7762 12.6559V28.302C12.7762 31.0186 11.2976 32.6004 8.71853 32.6004C7.92763 32.6004 7.30866 32.6004 5.55491 31.7407L1.94426 29.6775C1.05019 29.1617 0.5 28.1989 0.5 27.1672V11.3148C0.5 10.2831 1.05019 9.3203 1.94426 8.8045L15.6647 0.861065C16.5244 0.379645 17.6936 0.379645 18.5533 0.861065L32.2737 8.8045C33.1678 9.3203 33.718 10.2831 33.718 11.3148V27.1672C33.718 28.1989 33.1678 29.1617 32.2737 29.6775L18.5533 37.6209C18.1062 37.8273 17.5904 37.9304 17.109 37.9304ZM21.3386 27.0297C15.3209 27.0297 14.0829 24.2787 14.0829 21.9404C14.0829 21.7341 14.2549 21.5277 14.4956 21.5277H16.2837C16.49 21.5277 16.662 21.6653 16.662 21.8716C16.9371 23.6941 17.728 24.5882 21.373 24.5882C24.2615 24.5882 25.4995 23.9348 25.4995 22.3874C25.4995 21.4934 25.1556 20.84 20.6509 20.393C16.9027 20.0147 14.5643 19.1894 14.5643 16.1977C14.5643 13.4124 16.9027 11.7618 20.8228 11.7618C25.2244 11.7618 27.3908 13.2748 27.6659 16.576C27.6659 16.6792 27.6315 16.7823 27.5627 16.8855C27.4939 16.9543 27.3908 17.023 27.2876 17.023H25.4995C25.3275 17.023 25.1556 16.8855 25.1212 16.7135C24.7086 14.8223 23.6426 14.2033 20.8228 14.2033C17.6592 14.2033 17.2809 15.3037 17.2809 16.129C17.2809 17.1262 17.728 17.4357 21.992 17.9859C26.2216 18.5361 28.216 19.327 28.216 22.2843C28.1817 25.3103 25.7058 27.0297 21.3386 27.0297Z" fill="#101820"/>
</g>
<defs>
<clipPath id="clip0">
<rect width="33.218" height="37.5" fill="white" transform="translate(0.5 0.5)"/>
</clipPath>
</defs>
</svg>
