<svg width="34" height="39" viewBox="0 0 34 39" fill="none" xmlns="http://www.w3.org/2000/svg">
<path d="M32.6317 9.40129C31.2346 7.21324 28.2303 6.30429 24.1823 6.82599C24.0393 6.84276 23.8877 6.86807 23.7447 6.88483C23.6859 6.75038 23.6271 6.6156 23.5597 6.48115C21.8177 2.78651 19.436 0.75 16.844 0.75C14.2519 0.75 11.862 2.78651 10.1283 6.48115C10.0694 6.6156 10.002 6.75038 9.94317 6.88483C9.79163 6.85985 9.64863 6.84276 9.50563 6.82599C5.44938 6.29574 2.4533 7.21324 1.05618 9.40129C-0.34061 11.5893 0.0883875 14.6946 2.25968 18.145C2.546 18.5996 2.85731 19.0539 3.19394 19.5C2.85731 19.9543 2.546 20.4004 2.25968 20.8547C0.0883875 24.3051 -0.34061 27.4189 1.05618 29.5987C2.19228 31.3827 4.39743 32.317 7.36787 32.317C8.07991 32.3131 8.79096 32.2654 9.49708 32.1737C9.64008 32.1569 9.79163 32.1316 9.93463 32.1148C9.9938 32.2496 10.0526 32.3841 10.12 32.5189C11.862 36.2132 14.2437 38.25 16.8354 38.25C19.4275 38.25 21.8177 36.2132 23.5511 32.5189C23.61 32.3841 23.6773 32.2496 23.7362 32.1148C23.8877 32.1402 24.0307 32.1569 24.1741 32.1737C24.8795 32.2693 25.5909 32.317 26.3029 32.317C29.2737 32.317 31.4785 31.3827 32.6146 29.5987C34.0118 27.4107 33.5824 24.3051 31.4115 20.8547C31.1251 20.4004 30.8138 19.9461 30.4772 19.5C30.8138 19.0454 31.1251 18.5996 31.4115 18.145C33.6077 14.6863 34.0371 11.5808 32.6317 9.40129ZM11.6516 7.19647C13.0737 4.16686 14.9672 2.43312 16.844 2.43312C18.7207 2.43312 20.6142 4.16686 22.0363 7.19647C22.0373 7.20272 22.0403 7.20864 22.0449 7.21324C20.2572 7.64322 18.5136 8.23757 16.8354 8.98873C15.1592 8.23396 13.4149 7.63928 11.6263 7.21324C11.6431 7.21324 11.6431 7.20469 11.6516 7.19647ZM24.4265 19.5C24.4269 20.8465 24.3539 22.1923 24.2076 23.5309C23.1586 24.3774 22.0629 25.1641 20.9255 25.8873C19.6129 26.7302 18.2467 27.4866 16.8354 28.1513C15.4271 27.4813 14.0609 26.7252 12.7456 25.8873C11.6095 25.1621 10.5139 24.3755 9.46355 23.5309C9.17163 20.8514 9.17163 18.1482 9.46355 15.4687C11.7318 13.6459 14.2062 12.0953 16.8354 10.8487C18.244 11.5183 19.6099 12.2744 20.9255 13.1124C22.0616 13.8376 23.1573 14.6242 24.2076 15.4687C24.3539 16.8077 24.4269 18.1532 24.4265 19.5ZM26.0337 17.0509C26.8578 17.8185 27.6337 18.6364 28.3565 19.5C27.6337 20.3633 26.8578 21.1811 26.0337 21.9487C26.0843 21.141 26.1096 20.3248 26.1096 19.5C26.1096 18.6752 26.0843 17.859 26.0337 17.0509ZM23.8624 25.9212C23.5968 27.3781 23.2112 28.8107 22.7096 30.2046C21.4025 29.9094 20.1198 29.5155 18.8722 29.0264C19.865 28.5047 20.8581 27.9324 21.8427 27.3097C22.533 26.8636 23.2063 26.4008 23.8624 25.9212ZM14.8157 29.0264C13.5704 29.5218 12.287 29.9159 10.9784 30.2046C10.4767 28.8107 10.0911 27.3781 9.82549 25.9212C10.4734 26.4008 11.1467 26.8636 11.8452 27.3012C12.8298 27.9324 13.8229 28.5047 14.8157 29.0264ZM7.6542 21.9487C6.83006 21.1811 6.05458 20.3633 5.33136 19.5C6.05458 18.6364 6.83006 17.8185 7.6542 17.0509C7.60357 17.859 7.57826 18.6752 7.57826 19.5C7.57826 20.3248 7.60357 21.141 7.6542 21.9487ZM9.82549 13.0788C10.0911 11.6216 10.4767 10.1889 10.9784 8.79544C12.2854 9.09031 13.5684 9.48413 14.8157 9.97362C13.8229 10.4953 12.8298 11.0676 11.8452 11.6903C11.1549 12.1364 10.4816 12.5992 9.82549 13.0788ZM21.8345 11.6903C20.8581 11.0676 19.865 10.4868 18.8637 9.97362C20.1089 9.47822 21.3923 9.08406 22.7013 8.79544C23.2027 10.1889 23.5883 11.6216 23.8542 13.0788C23.2063 12.5992 22.533 12.1364 21.8345 11.6903ZM3.68211 17.2446C1.89774 14.4168 1.46019 11.8839 2.47006 10.3017C3.27809 9.03936 5.0286 8.35756 7.39318 8.35756C8.02633 8.36019 8.65881 8.4026 9.28669 8.4838H9.30346C8.62265 10.4634 8.14894 12.5082 7.8899 14.5851C6.59305 15.667 5.38561 16.852 4.27942 18.1282C4.06903 17.8422 3.86718 17.5476 3.68211 17.2446ZM9.27847 30.5077C8.65059 30.5892 8.01811 30.6313 7.38497 30.6339C5.02005 30.6339 3.26955 29.9606 2.46185 28.6898C1.45198 27.1076 1.88952 24.5747 3.67356 21.7469C3.85864 21.4524 4.06081 21.1493 4.2712 20.8547C5.37706 22.1312 6.5845 23.3159 7.88135 24.3978C8.14072 26.4751 8.61443 28.5198 9.29524 30.4991C9.29524 30.5077 9.28669 30.5077 9.27847 30.5077ZM22.0363 31.8035C20.6142 34.8331 18.7207 36.5669 16.844 36.5669C14.9672 36.5669 13.0737 34.8331 11.6516 31.8035C11.6506 31.7973 11.6477 31.7914 11.6431 31.7868C13.4307 31.3568 15.1743 30.7624 16.8525 30.0109C18.5287 30.766 20.273 31.3607 22.0616 31.7868C22.0449 31.7868 22.0449 31.795 22.0363 31.8035ZM30.0058 21.7554C31.7902 24.5829 32.2277 27.1161 31.2178 28.6983C30.208 30.2802 27.7254 30.9452 24.4094 30.5077H24.3927C25.0735 28.528 25.5475 26.4833 25.8066 24.4064C27.1034 23.3245 28.3109 22.1394 29.4167 20.8633C29.6189 21.1578 29.8207 21.4524 30.0058 21.7554ZM25.798 14.5936C25.539 12.5164 25.0653 10.4717 24.3845 8.49234H24.4012C27.7168 8.06302 30.1994 8.7195 31.2093 10.3017C32.2192 11.8839 31.7816 14.4168 29.9976 17.2446C29.8125 17.5391 29.6103 17.8422 29.3999 18.1367C28.299 16.8583 27.0942 15.6732 25.798 14.5936Z" fill="#101820"/>
<path d="M16.8439 16.1672C15.0034 16.1672 13.5112 17.6594 13.5112 19.4999C13.5112 21.3405 15.0034 22.8323 16.8439 22.8323C18.6845 22.8323 20.1766 21.3405 20.1766 19.4999C20.1753 17.6597 18.6839 16.1686 16.8439 16.1672ZM16.8439 21.1492C15.933 21.1492 15.1943 20.4109 15.1943 19.4999C15.1943 18.589 15.933 17.8504 16.8439 17.8504C17.7549 17.8504 18.4935 18.589 18.4935 19.4999C18.4919 20.4102 17.7542 21.1479 16.8439 21.1492Z" fill="#101820"/>
</svg>
