<svg width="40" height="38" viewBox="0 0 40 38" fill="none" xmlns="http://www.w3.org/2000/svg">
<g clip-path="url(#clip0)">
<path d="M27.7593 26.5854C29.2111 26.4351 30.3125 25.1836 30.2624 23.6816C30.2124 22.1797 28.9607 20.9781 27.4588 20.9781H27.3588C25.8067 21.0282 24.6052 22.3298 24.6553 23.8818C24.7054 24.6328 25.0057 25.2836 25.4563 25.7342C23.7542 29.0887 21.1509 31.5418 17.246 33.5945C14.5926 34.9963 11.8392 35.497 9.08575 35.1466C6.83285 34.8461 5.08063 33.8449 3.97908 32.1926C2.37716 29.7395 2.22701 27.086 3.57875 24.4326C4.53001 22.5301 6.03174 21.1282 6.98299 20.4273C6.78275 19.7765 6.48231 18.6751 6.33217 17.8741C-0.927041 23.1309 -0.176024 30.2402 2.02677 33.5945C3.6788 36.0978 7.03309 37.6498 10.7378 37.6498C11.739 37.6498 12.7402 37.5496 13.7415 37.2994C20.1497 36.0477 25.0059 32.2427 27.7593 26.5854ZM36.5705 20.3774C32.7656 15.9215 27.1586 13.4684 20.7504 13.4684H19.9494C19.4989 12.5672 18.5476 11.9663 17.4963 11.9663H17.3961C15.8443 12.0164 14.6428 13.3181 14.6928 14.8702C14.7429 16.3721 15.9944 17.5737 17.4963 17.5737H17.5963C18.6977 17.5236 19.649 16.8227 20.0495 15.8714H20.9506C24.7555 15.8714 28.36 16.9728 31.6143 19.1257C34.1173 20.7778 35.9196 22.9307 36.9209 25.534C37.7719 27.6367 37.7218 29.6894 36.8207 31.4418C35.419 34.0951 33.066 35.5471 29.9621 35.5471C27.9595 35.5471 26.0572 34.9462 25.0558 34.4956C24.5052 34.9963 23.5038 35.7973 22.8029 36.2981C24.9558 37.2993 27.1586 37.8501 29.2612 37.8501C34.0672 37.8501 37.6218 35.1965 38.9735 32.5432C40.4253 29.6393 40.3251 24.6328 36.5705 20.3774ZM11.1382 27.4363C11.1883 28.9384 12.4399 30.1398 13.9418 30.1398H14.042C15.5939 30.0899 16.7954 28.7881 16.7453 27.2361C16.6953 25.7341 15.4436 24.5326 13.9418 24.5326H13.8417C13.7415 24.5326 13.5912 24.5326 13.4913 24.5826C11.4387 21.1782 10.5876 17.4735 10.8881 13.4682C11.0882 10.4643 12.0895 7.86088 13.8417 5.70802C15.2935 3.85561 18.097 2.95445 19.9995 2.9045C25.3061 2.80431 27.5589 9.41285 27.7092 12.0664C28.36 12.2165 29.4614 12.5671 30.2124 12.8174C29.6115 4.70697 24.6052 0.501465 19.7993 0.501465C15.2935 0.501465 11.1382 3.75572 9.48607 8.56195C7.18323 14.9703 8.68511 21.1282 11.4886 25.9846C11.2384 26.3349 11.0882 26.8857 11.1382 27.4365V27.4363Z" fill="#101820"/>
</g>
<defs>
<clipPath id="clip0">
<rect width="39.3412" height="37.5" fill="white" transform="translate(0.5 0.5)"/>
</clipPath>
</defs>
</svg>
