<svg width="60" height="79" viewBox="0 0 60 79" fill="none" xmlns="http://www.w3.org/2000/svg">
<path d="M52.3821 0H7.62724C3.42662 0 0.00937957 3.4174 0.00937957 7.61786C0.00937957 64.2682 -0.0523571 60.848 0.140946 61.4282C0.270608 61.8164 0.487717 62.1539 0.748946 62.4164C0.907334 62.5755 16.3313 78.0173 16.5557 78.1897C17.559 78.9624 16.0167 78.7179 52.3821 78.7179C56.5828 78.7179 60 75.3005 60 71.1V7.61786C60 3.4174 56.5828 0 52.3821 0V0ZM15.5625 70.0483L8.67898 63.1647H15.5625V70.0483ZM54.9214 71.1C54.9214 72.5001 53.7822 73.6393 52.3821 73.6393H20.6411V60.6255C20.6411 59.2231 19.5043 58.0862 18.1018 58.0862H5.08795V7.61786C5.08795 6.21776 6.22714 5.07857 7.62724 5.07857H52.3821C53.7822 5.07857 54.9214 6.21776 54.9214 7.61786V71.1ZM46.8275 51.2618C46.8275 52.6642 45.6907 53.8011 44.2882 53.8011H15.5625C14.16 53.8011 13.0232 52.6642 13.0232 51.2618C13.0232 49.8595 14.16 48.7225 15.5625 48.7225H44.2882C45.6907 48.7225 46.8275 49.8595 46.8275 51.2618ZM46.8275 64.2757C46.8275 65.678 45.6907 66.815 44.2882 66.815H27.9415C26.539 66.815 25.4022 65.678 25.4022 64.2757C25.4022 62.8734 26.539 61.7364 27.9415 61.7364H44.2882C45.6907 61.7364 46.8275 62.8734 46.8275 64.2757ZM29.9006 26.6747C34.6132 26.6747 38.4472 22.8407 38.4472 18.1281C38.4472 13.4155 34.6133 9.58152 29.9006 9.58152C25.1878 9.58152 21.354 13.4155 21.354 18.1281C21.354 22.8407 25.188 26.6747 29.9006 26.6747ZM29.9006 14.6601C31.8128 14.6601 33.3686 16.2159 33.3686 18.1281C33.3686 20.0404 31.8128 21.5961 29.9006 21.5961C27.9883 21.5961 26.4325 20.0404 26.4325 18.1281C26.4325 16.2159 27.9883 14.6601 29.9006 14.6601ZM17.0424 39.1131V35.6314C17.0424 33.4357 18.3379 31.4384 20.343 30.543L24.3703 28.7447C25.0456 28.4432 24.5727 28.5241 34.338 28.5241C35.0518 28.5241 35.0274 28.5903 39.4005 30.5428C41.4056 31.4383 42.7011 33.4356 42.7011 35.6313V39.1129C42.7011 40.5153 41.5643 41.6522 40.1618 41.6522C38.7594 41.6522 37.6225 40.5153 37.6225 39.1129V35.6313C37.6225 35.4365 37.5076 35.2596 37.3299 35.1802L33.7966 33.6027H25.9468L22.4135 35.1802C22.2357 35.2596 22.1208 35.4367 22.1208 35.6313V39.1129C22.1208 40.5153 20.984 41.6522 19.5816 41.6522C18.1791 41.6522 17.0424 40.5154 17.0424 39.1131Z" fill="#F2AA4C"/>
</svg>
