<svg width="51" height="51" viewBox="0 0 51 51" fill="none" xmlns="http://www.w3.org/2000/svg">
<rect x="0.5" y="0.5" width="50" height="50" rx="15" fill="#F2AA4C"/>
<path d="M40.8889 28.0573C39.3741 28.0664 38.0575 28.4866 36.9551 29.1076C36.5507 28.1852 36.1462 27.3631 36.0748 26.7603C35.9955 26.0571 35.9003 25.6278 35.9955 24.7875C36.0907 23.9472 36.5189 22.7508 36.511 22.6594C36.5031 22.5681 36.4158 22.1388 35.5434 22.1297C34.671 22.1206 33.9176 22.3215 33.8303 22.5864C33.7431 22.8512 33.5765 23.454 33.4655 24.0751C33.3148 24.9885 31.7207 28.2491 30.8086 29.957C30.5151 29.2903 30.2614 28.7058 30.2058 28.24C30.1265 27.5367 30.0314 27.1074 30.1265 26.2671C30.2217 25.4269 30.65 24.2304 30.642 24.139C30.6341 24.0477 30.5469 23.6184 29.6745 23.6093C28.802 23.6002 28.0486 23.8011 27.9614 24.066C27.8741 24.3308 27.7789 24.9519 27.5965 25.5547C27.4141 26.1575 25.2965 31.6011 24.7414 33.0076C24.4558 33.7291 24.21 34.3045 24.0355 34.6973C24.0355 34.6973 24.0276 34.7247 24.0038 34.7703C23.8531 35.1083 23.7658 35.291 23.7658 35.291C23.7658 35.291 23.7658 35.291 23.7658 35.3001C23.6469 35.5467 23.52 35.775 23.4565 35.775C23.4089 35.775 23.3217 35.1174 23.4724 34.2223C23.7896 32.3317 24.5431 29.3908 24.5352 29.2903C24.5352 29.2355 24.6779 28.724 24.0434 28.4592C23.4248 28.1943 23.2027 28.6327 23.1472 28.6327C23.0917 28.6327 23.0521 28.788 23.0521 28.788C23.0521 28.788 23.7421 25.4817 21.7355 25.4817C20.4824 25.4817 18.7534 27.0617 17.8969 28.4866C17.3576 28.8245 16.2076 29.546 14.9783 30.3224C14.5103 30.6238 14.0265 30.9252 13.5745 31.2083C13.5428 31.1718 13.511 31.1261 13.4793 31.0896C11.0524 28.103 6.56345 25.9931 6.7538 21.9836C6.82518 20.5222 7.26138 16.6862 15.3748 12.0281C22.0527 8.23776 27.3665 9.2881 28.2865 11.6171C29.6031 14.9417 25.4393 21.1159 18.5393 22.011C15.9062 22.3489 14.5262 21.1798 14.1772 20.7414C13.8124 20.2847 13.7569 20.2573 13.6221 20.3487C13.4 20.4857 13.5428 20.8967 13.6221 21.1342C13.8283 21.7552 14.6769 22.8512 16.1124 23.3901C17.3814 23.865 20.4665 24.1299 24.202 22.4676C28.3817 20.6044 31.6493 15.4258 30.6896 11.0874C29.73 6.68508 23.3852 5.23286 17.3814 7.68975C13.8124 9.1511 9.94207 11.4527 7.15828 14.4485C3.85104 18.0105 3.3276 21.1068 3.54173 22.4037C4.31104 27.0069 9.82311 30.0027 12.0279 32.2221C11.9169 32.2952 11.8138 32.3591 11.7266 32.4139C10.6241 33.0441 6.4207 35.5741 5.3738 38.2502C4.18415 41.2825 5.56415 43.4562 6.47621 43.7485C9.30759 44.6527 12.2183 43.027 13.7807 40.3417C15.3431 37.6565 15.1528 34.1675 14.431 32.5692C14.4231 32.5509 14.4152 32.5327 14.3993 32.5144C14.6848 32.3226 14.9783 32.1217 15.2638 31.9299C15.8269 31.5462 16.3821 31.19 16.8579 30.8978C16.5883 31.7472 16.39 32.761 16.2948 34.2223C16.1759 35.9394 16.7865 38.168 17.5876 39.0448C17.9445 39.4284 18.3648 39.4375 18.6345 39.4375C19.5703 39.4375 19.9907 38.5425 20.4586 37.483C21.0296 36.186 21.5452 34.679 21.5452 34.679C21.5452 34.679 20.9027 38.7525 22.6476 38.7525C23.2821 38.7525 23.9245 37.8026 24.21 37.3186C24.21 37.3277 24.21 37.3277 24.21 37.3277C24.21 37.3277 24.2258 37.3003 24.2576 37.2364C24.321 37.1176 24.3607 37.0446 24.3607 37.0446C24.3607 37.0446 24.3607 37.0354 24.3607 37.0263C24.6145 36.5148 25.1855 35.3549 26.0341 33.4277C27.1286 30.9434 28.1834 27.8381 28.1834 27.8381C28.1834 27.8381 28.2786 28.5962 28.6038 29.8566C28.7941 30.5964 29.1907 31.4092 29.5079 32.1947C29.2541 32.6057 29.0955 32.8341 29.0955 32.8341C29.0955 32.8341 29.0955 32.8341 29.1034 32.8432C28.8972 33.1537 28.6751 33.4917 28.4293 33.8205C27.5648 35.0078 26.5338 36.3687 26.391 36.7614C26.2245 37.2272 26.2641 37.5652 26.5814 37.8392C26.8114 38.0401 27.2238 38.0675 27.6441 38.0401C28.4214 37.9762 28.9686 37.757 29.2382 37.62C29.6586 37.4464 30.1503 37.1816 30.6103 36.7888C31.4589 36.0673 31.9745 35.0352 31.9269 33.6743C31.9031 32.9254 31.6889 32.1765 31.4272 31.4732C31.5065 31.3453 31.5779 31.2174 31.6572 31.0896C32.9976 28.8336 34.0365 26.3585 34.0365 26.3585C34.0365 26.3585 34.1317 27.1165 34.4569 28.377C34.6155 29.0163 34.9407 29.7104 35.2262 30.3863C33.9651 31.5645 33.1879 32.9345 32.9103 33.8296C32.4107 35.4919 32.7993 36.2408 33.5369 36.4144C33.87 36.4966 34.3458 36.3139 34.6948 36.1404C35.1389 35.976 35.6624 35.6928 36.162 35.2727C37.0107 34.5511 37.8275 33.5465 37.78 32.1856C37.7562 31.5645 37.6134 30.9526 37.4151 30.3589C38.4858 29.8474 39.8658 29.5643 41.6265 29.8018C45.4017 30.3132 46.1472 33.0259 46.0044 34.1675C45.8617 35.3092 45.0686 35.9303 44.8069 36.1221C44.5451 36.3139 44.4579 36.3778 44.4817 36.5148C44.5134 36.7158 44.6403 36.7066 44.8624 36.6701C45.1717 36.6062 46.8451 35.7476 46.9165 33.6469C47.0355 30.9617 44.8148 28.0299 40.8889 28.0573ZM11.7662 39.3645C10.5131 40.9354 8.76828 41.5291 8.01483 41.0267C7.20587 40.4879 7.52311 38.168 9.06173 36.5057C9.99759 35.4919 11.2031 34.5511 12.0041 33.9757C12.1866 33.8479 12.4562 33.6652 12.7814 33.4369C12.8369 33.4003 12.8686 33.3821 12.8686 33.3821C12.9321 33.3364 12.9955 33.2907 13.059 33.2451C13.6221 35.6198 13.0828 37.7113 11.7662 39.3645ZM20.8869 32.2221C20.4507 33.446 19.5386 36.5788 18.9834 36.4052C18.5076 36.2591 18.2141 33.8844 18.8883 31.5371C19.2293 30.3589 19.951 28.9524 20.3714 28.4044C21.0534 27.5275 21.8069 27.2353 21.9893 27.5915C22.2193 28.0573 21.1565 31.4549 20.8869 32.2221ZM28.4134 36.3687C28.231 36.4783 28.0565 36.5514 27.9772 36.4966C27.9217 36.46 28.0565 36.3139 28.0565 36.3139C28.0565 36.3139 29.0003 35.1448 29.3731 34.6151C29.5872 34.3045 29.841 33.9392 30.1107 33.5282C30.1107 33.5647 30.1107 33.6104 30.1107 33.6469C30.1107 35.0444 28.9369 35.9851 28.4134 36.3687ZM34.2189 34.8434C34.0841 34.7338 34.1079 34.3685 34.56 33.2268C34.7344 32.7793 35.1469 32.0303 35.8527 31.3088C35.932 31.6011 35.9875 31.8842 35.9796 32.1491C35.9717 33.9118 34.8772 34.5694 34.2189 34.8434Z" fill="#101820"/>
</svg>
