<svg width="62" height="62" viewBox="0 0 62 62" fill="none" xmlns="http://www.w3.org/2000/svg">
<path d="M31.0289 52.0878L20.1583 40.5962L23.6771 37.2676L31.0194 45.0294L38.3181 37.2723L41.8459 40.5915L31.0289 52.0878ZM51.1016 47.4688V14.5313C51.1016 6.51872 44.5828 0 36.5703 0H25.4297C17.4172 0 10.8984 6.51872 10.8984 14.5313V47.4688C10.8984 55.4813 17.4172 62 25.4297 62H36.5703C44.5828 62 51.1016 55.4813 51.1016 47.4688ZM36.5703 4.84375C41.9122 4.84375 46.2578 9.18941 46.2578 14.5313V47.4688C46.2578 52.8106 41.9122 57.1563 36.5703 57.1563H25.4297C20.0878 57.1563 15.7422 52.8106 15.7422 47.4688V14.5313C15.7422 9.18941 20.0878 4.84375 25.4297 4.84375H36.5703ZM31 9.80859C29.6623 9.80859 28.5781 10.8928 28.5781 12.2305C28.5781 13.5682 29.6623 14.6523 31 14.6523C32.3377 14.6523 33.4219 13.5682 33.4219 12.2305C33.4219 10.8928 32.3377 9.80859 31 9.80859ZM31 19.4961C29.6623 19.4961 28.5781 20.5803 28.5781 21.918C28.5781 23.2557 29.6623 24.3398 31 24.3398C32.3377 24.3398 33.4219 23.2557 33.4219 21.918C33.4219 20.5803 32.3377 19.4961 31 19.4961ZM31 29.1836C29.6623 29.1836 28.5781 30.2678 28.5781 31.6055C28.5781 32.9432 29.6623 34.0273 31 34.0273C32.3377 34.0273 33.4219 32.9432 33.4219 31.6055C33.4219 30.2678 32.3377 29.1836 31 29.1836Z" fill="#F2AA4C"/>
</svg>
