<svg width="60" height="60" viewBox="0 0 60 60" fill="none" xmlns="http://www.w3.org/2000/svg">
<path d="M30.0001 0C15.9826 0 5.00012 4.9425 5.00012 11.25C5.00012 17.5575 15.9826 22.5 30.0001 22.5C44.0176 22.5 55 17.5575 55 11.25C55 4.9425 44.0176 0 30.0001 0ZM30.0001 20C16.7401 20 7.50008 15.3875 7.50008 11.25C7.50008 7.11246 16.7401 2.49996 30.0001 2.49996C43.2601 2.49996 52.5001 7.11246 52.5001 11.25C52.5001 15.3875 43.2601 20 30.0001 20Z" fill="#101820"/>
<path d="M53.7501 22.5C53.0601 22.5 52.5001 23.06 52.5001 23.75C52.5001 27.8876 43.2601 32.5001 30.0001 32.5001C16.7401 32.5001 7.50008 27.8876 7.50008 23.75C7.50008 23.06 6.94004 22.5 6.25004 22.5C5.56004 22.5 5 23.06 5 23.75C5 30.0575 15.9825 35 30 35C44.0175 35 54.9999 30.0575 54.9999 23.75C55 23.06 54.4401 22.5 53.7501 22.5Z" fill="#101820"/>
<path d="M53.7501 35C53.0601 35 52.5001 35.56 52.5001 36.25C52.5001 40.3875 43.2601 45 30.0001 45C16.7401 45 7.50008 40.3875 7.50008 36.2499C7.50008 35.5599 6.94004 34.9999 6.25004 34.9999C5.56004 34.9999 5 35.5599 5 36.2499C5 42.5574 15.9825 47.4999 30 47.4999C44.0175 47.4999 54.9999 42.5574 54.9999 36.2499C55 35.5599 54.4401 35 53.7501 35Z" fill="#101820"/>
<path d="M53.7501 10C53.0601 10 52.5001 10.56 52.5001 11.25V48.75C52.5001 52.8876 43.2601 57.5001 30.0001 57.5001C16.7401 57.5001 7.50008 52.8876 7.50008 48.75V11.25C7.50008 10.56 6.94004 10 6.25004 10C5.56004 10 5.00012 10.56 5.00012 11.25V48.75C5.00012 55.0575 15.9826 60 30.0001 60C44.0176 60 55 55.0575 55 48.75V11.25C55 10.56 54.4401 10 53.7501 10Z" fill="#101820"/>
</svg>
