<svg width="38" height="38" viewBox="0 0 38 38" fill="none" xmlns="http://www.w3.org/2000/svg">
<g clip-path="url(#clip0)">
<path d="M35.5503 28.5216C35.4355 28.7237 35.3069 28.9395 35.1654 29.1667C33.1779 32.3504 30.2613 34.8951 26.7944 36.4203C26.2235 36.6713 25.6373 36.8956 25.0381 37.0891C24.6845 37.2039 24.3263 37.3088 23.9644 37.4022L26.3207 4.82617L29.2503 7.38921L32.3996 7.46267L35.5503 28.5216Z" fill="#101820" fill-opacity="0.9"/>
<path d="M24.9998 5.25488C24.2008 3.17327 22.9334 1.31665 20.8548 1.648C20.378 1.01584 19.7214 0.559766 18.8153 0.50542H18.8122C18.7526 0.501538 18.6921 0.5 18.6301 0.5C18.4449 0.5 18.2613 0.512231 18.0791 0.535962C14.8479 0.959155 12.2023 5.05281 11.209 9.73188L6.69214 11.1982L4.22168 30.4648C5.57476 32.2739 7.24614 33.8313 9.1541 35.052L22.9923 37.6265C23.6888 37.4856 24.3714 37.3058 25.038 37.0892L26.3206 4.8262L24.9998 5.25488ZM12.6409 9.26738C12.6409 9.26738 13.2837 7.24311 14.1623 5.41177C15.0417 3.58115 17.8978 0.943921 19.5095 1.93269C19.5577 1.96257 19.6044 1.99465 19.6488 2.02915C17.7983 2.88323 16.345 4.87988 15.6042 8.30542L12.6409 9.26738ZM20.7691 6.62854L17.1347 7.80789C17.1347 7.80789 17.8281 4.03643 20.3965 3.11042C20.9643 4.56912 20.7691 6.62854 20.7691 6.62854ZM22.1092 6.19311C22.1092 6.19311 22.1092 4.48723 21.5383 2.94285C22.8554 3.08062 23.5311 4.49104 23.864 5.62373L22.1092 6.19311Z" fill="#101820"/>
<path d="M9.59413 26.9537C10.2525 27.4295 10.9112 27.9128 11.6738 28.2248C12.0018 28.3591 12.3365 28.4634 12.688 28.5201C13.3189 28.6219 13.8912 28.5376 14.2926 27.9858C14.7134 27.4075 14.6388 26.7906 14.3589 26.1827C14.1665 25.765 13.8442 25.4439 13.5031 25.1453C13.0624 24.7599 12.617 24.3797 12.1695 24.0022C10.717 22.777 10.2673 21.1876 10.5231 19.3659C10.9692 16.1899 13.3309 13.9205 16.5251 13.5315C17.8983 13.3642 19.2453 13.3776 20.5722 13.8257C20.8701 13.9263 20.8998 14.0475 20.8046 14.3215C20.3891 15.518 19.9866 16.7191 19.5973 17.9243C19.5187 18.1676 19.4539 18.2078 19.205 18.1058C18.189 17.6894 17.1382 17.4409 16.0296 17.6267C15.2588 17.7559 14.6397 18.0938 14.4228 18.9133C14.2702 19.4902 14.4724 19.9697 14.8827 20.373C15.4502 20.931 16.1116 21.373 16.7385 21.8575C17.4959 22.4431 18.1969 23.0838 18.6869 23.9191C19.5598 25.4072 19.5693 26.9954 19.1162 28.5915C18.3499 31.291 16.0313 32.7479 13.2425 32.3958C11.6215 32.1912 10.1907 31.6017 8.94968 30.5377C8.67062 30.2984 8.56567 30.083 8.70329 29.6976C8.99384 28.8842 9.21562 28.0462 9.46486 27.2182C9.49233 27.127 9.49621 27.0256 9.59413 26.9537Z" fill="#F2AA4C"/>
</g>
<defs>
<clipPath id="clip0">
<rect width="37.5" height="37.5" fill="white" transform="translate(0.5 0.5)"/>
</clipPath>
</defs>
</svg>
