<svg width="38" height="39" viewBox="0 0 38 39" fill="none" xmlns="http://www.w3.org/2000/svg">
<path fill-rule="evenodd" clip-rule="evenodd" d="M13.9441 1.31071C18.7763 0.0650877 24.1167 0.790955 28.3783 3.43455C33.7454 6.66063 37.2492 12.7633 37.3383 19.0452C37.5345 25.3898 34.2447 31.6807 28.9578 35.1308C23.0735 39.1096 14.9337 39.2619 8.92466 35.4803C2.79971 31.8061 -0.7754 24.3951 0.142896 17.2798C0.882882 9.76125 6.66012 3.12986 13.9441 1.31071Z" fill="#010101"/>
<path fill-rule="evenodd" clip-rule="evenodd" d="M13.2039 4.38436C22.3334 0.710215 33.5312 7.49394 34.4763 17.3335C35.9473 26.1873 28.6366 35.1845 19.7122 35.4443C11.2246 36.2957 3.02239 29.0639 2.78167 20.4968C2.14867 13.5608 6.69557 6.67846 13.2039 4.38436Z" fill="#F2AA4C"/>
<path fill-rule="evenodd" clip-rule="evenodd" d="M14.1223 18.5164C18.2145 15.1559 22.2176 11.6789 26.3989 8.41699C24.2057 11.8044 21.9501 15.1469 19.7569 18.5343C17.8757 18.5433 15.9946 18.5433 14.1223 18.5164Z" fill="#010101"/>
<path fill-rule="evenodd" clip-rule="evenodd" d="M17.5815 20.3894C19.4716 20.3894 21.3528 20.3894 23.2339 20.4163C19.115 23.7589 15.1297 27.2627 10.9395 30.5157C13.1327 27.1283 15.3883 23.7768 17.5815 20.3894Z" fill="#010101"/>
</svg>
