<svg width="38" height="38" viewBox="0 0 38 38" fill="none" xmlns="http://www.w3.org/2000/svg">
<g clip-path="url(#clip0)">
<path d="M34.3379 0.5H4.16211C2.13958 0.5 0.5 2.13958 0.5 4.16211V34.3379C0.5 36.3604 2.13958 38 4.16211 38H34.3379C36.3604 38 38 36.3604 38 34.3379V4.16211C38 2.13958 36.3604 0.5 34.3379 0.5Z" fill="#101820"/>
<path d="M34.3379 0.5H4.16211C2.13958 0.5 0.5 2.13958 0.5 4.16211V34.3379C0.5 36.3604 2.13958 38 4.16211 38H34.3379C36.3604 38 38 36.3604 38 34.3379V4.16211C38 2.13958 36.3604 0.5 34.3379 0.5Z" fill="#101820"/>
<path fill-rule="evenodd" clip-rule="evenodd" d="M23.7133 30.3406V34.0072C24.3094 34.3128 25.0143 34.5419 25.8282 34.6947C26.642 34.8474 27.4998 34.9238 28.4015 34.9238C29.2804 34.9238 30.1152 34.8398 30.9061 34.6717C31.6971 34.5037 32.3906 34.2268 32.9866 33.841C33.5827 33.4553 34.0546 32.9511 34.4023 32.3286C34.75 31.706 34.9238 30.9365 34.9238 30.0198C34.9238 29.3552 34.8245 28.7728 34.6258 28.2725C34.4271 27.7722 34.1406 27.3272 33.7661 26.9376C33.3917 26.5481 32.9427 26.1986 32.4192 25.8892C31.8958 25.5798 31.3054 25.2876 30.6482 25.0127C30.1668 24.8141 29.7351 24.6212 29.353 24.4341C28.9708 24.2469 28.6461 24.0559 28.3786 23.8612C28.1111 23.6664 27.9048 23.4601 27.7596 23.2424C27.6145 23.0247 27.5418 22.7784 27.5418 22.5033C27.5418 22.2513 27.6068 22.024 27.7367 21.8216C27.8667 21.6192 28.05 21.4454 28.2869 21.3003C28.5239 21.1552 28.8142 21.0425 29.1581 20.9623C29.502 20.8821 29.884 20.842 30.3044 20.842C30.61 20.842 30.9329 20.8649 31.2729 20.9107C31.613 20.9565 31.955 21.0272 32.2989 21.1227C32.6428 21.2182 32.9771 21.3385 33.3019 21.4836C33.6266 21.6288 33.9266 21.7968 34.2017 21.9878V18.5618C33.6438 18.3479 33.0344 18.1895 32.3734 18.0863C31.7124 17.9832 30.9539 17.9316 30.098 17.9316C29.2268 17.9316 28.4015 18.0252 27.6221 18.2124C26.8427 18.3995 26.1568 18.6917 25.5645 19.0889C24.9723 19.4861 24.5042 19.9922 24.1604 20.6071C23.8165 21.222 23.6445 21.9572 23.6445 22.8127C23.6445 23.9051 23.9598 24.837 24.5902 25.6085C25.2206 26.38 26.1778 27.0331 27.4616 27.5678C27.966 27.7741 28.436 27.9764 28.8715 28.1751C29.3071 28.3737 29.6835 28.58 30.0006 28.7938C30.3177 29.0077 30.568 29.2407 30.7514 29.4928C30.9348 29.7448 31.0265 30.0312 31.0265 30.3521C31.0265 30.5889 30.9692 30.8085 30.8546 31.0109C30.7399 31.2134 30.5661 31.389 30.333 31.538C30.1 31.687 29.8095 31.8034 29.4619 31.8874C29.1141 31.9715 28.7073 32.0135 28.2411 32.0135C27.4463 32.0135 26.6593 31.8741 25.8797 31.5953C25.1003 31.3165 24.3781 30.8983 23.7133 30.3406ZM17.5493 21.3068H22.2529V18.2979H9.14258V21.3068H13.8232V34.7041H17.5493V21.3068Z" fill="#F2AA4C"/>
</g>
<defs>
<clipPath id="clip0">
<rect width="37.5" height="37.5" fill="white" transform="translate(0.5 0.5)"/>
</clipPath>
</defs>
</svg>
