<svg width="39" height="38" viewBox="0 0 39 38" fill="none" xmlns="http://www.w3.org/2000/svg">
<g clip-path="url(#clip0)">
<path d="M7.31538 0.5H32.1715C35.94 0.5 38.9868 3.54487 38.9868 7.3109V31.1891C38.9868 34.9551 35.94 38 32.1715 38H7.31538C3.54688 38 0.5 34.9551 0.5 31.1891V7.3109C0.5 3.54487 3.54688 0.5 7.31538 0.5Z" fill="#101820"/>
<path d="M20.7377 10.3557L15.9269 18.2884L21.0585 26.7019C21.0905 26.766 21.1066 26.8301 21.0905 26.8942C21.0745 26.9583 21.0104 26.9102 20.9141 26.9263H17.2418C16.9853 26.9263 16.8089 26.9102 16.6966 26.75C16.3599 26.0769 16.0071 25.4198 15.6703 24.7468C15.3335 24.0897 14.9647 23.4166 14.5798 22.7275C14.195 22.0384 13.8101 21.3493 13.4252 20.6442H13.3932C13.0564 21.3333 12.6876 22.0224 12.3187 22.7115C11.9499 23.4006 11.5811 24.0897 11.2283 24.7628C10.8594 25.4359 10.4906 26.125 10.1218 26.782C10.0576 26.9423 9.92935 26.9583 9.75295 26.9583H6.22499C6.16085 26.9583 6.11274 26.9904 6.11274 26.9102C6.0967 26.8461 6.11274 26.782 6.14481 26.7339L11.1321 18.5609L6.2731 10.3397C6.22499 10.2756 6.20895 10.2115 6.24103 10.1795C6.2731 10.1314 6.33724 10.1154 6.40139 10.1154H10.0416C10.1218 10.1154 10.202 10.1314 10.2661 10.1474C10.3303 10.1795 10.3784 10.2275 10.4265 10.2916C10.7312 10.9807 11.084 11.6698 11.4528 12.3589C11.8377 13.048 12.2065 13.7211 12.6074 14.3942C12.9923 15.0673 13.3451 15.7404 13.6818 16.4295H13.7139C14.0506 15.7243 14.4034 15.0352 14.7562 14.3622C15.109 13.6891 15.4779 13.016 15.8467 12.3429C16.2155 11.6698 16.5683 10.9807 16.9211 10.3237C16.9372 10.2596 16.9692 10.1955 17.0173 10.1634C17.0815 10.1314 17.1456 10.1154 17.2258 10.1314H20.6094C20.6896 10.1154 20.7698 10.1634 20.7858 10.2436C20.8019 10.2596 20.7698 10.3237 20.7377 10.3557Z" fill="#F2AA4C"/>
<path d="M28.1464 27.2628C26.9597 27.2788 25.773 27.0384 24.6986 26.5416C23.6883 26.0769 22.8544 25.3077 22.2771 24.3621C21.6838 23.3846 21.3951 22.1666 21.3951 20.7083C21.3791 19.5224 21.6838 18.3525 22.2771 17.3269C22.8865 16.2852 23.7685 15.4198 24.8269 14.8429C25.9494 14.2179 27.2964 13.9134 28.884 13.9134C28.9642 13.9134 29.0765 13.9134 29.2208 13.9295C29.3651 13.9455 29.5255 13.9455 29.7179 13.9615V8.8974C29.7179 8.78522 29.766 8.72112 29.8783 8.72112H33.1336C33.2138 8.70509 33.2779 8.7692 33.294 8.8333C33.294 8.84932 33.294 8.86535 33.294 8.86535V24.1218C33.294 24.4102 33.31 24.7307 33.3261 25.0833C33.3581 25.4198 33.3742 25.7404 33.3902 26.0128C33.3902 26.125 33.3421 26.2211 33.2298 26.2692C32.396 26.6218 31.514 26.8782 30.6159 27.0384C29.7981 27.1827 28.9802 27.2628 28.1464 27.2628ZM29.7179 24.0577V17.0064C29.5736 16.9743 29.4293 16.9423 29.2849 16.9262C29.1085 16.9102 28.9321 16.8942 28.7557 16.8942C28.1303 16.8942 27.5049 17.0224 26.9437 17.3109C26.3984 17.5833 25.9334 17.9839 25.5806 18.4968C25.2278 19.0096 25.0514 19.6987 25.0514 20.532C25.0353 21.0929 25.1316 21.6538 25.324 22.1827C25.4844 22.6154 25.7249 23 26.0456 23.3205C26.3503 23.6089 26.7191 23.8333 27.1361 23.9615C27.5691 24.1057 28.0181 24.1698 28.4671 24.1698C28.7076 24.1698 28.9321 24.1538 29.1406 24.1378C29.3491 24.1538 29.5255 24.1218 29.7179 24.0577Z" fill="#F2AA4C"/>
</g>
<defs>
<clipPath id="clip0">
<rect width="38.4868" height="37.5" fill="white" transform="translate(0.5 0.5)"/>
</clipPath>
</defs>
</svg>
